{"glyphs":{"0":{"ha":875,"x_min":0,"x_max":0,"o":"m 438 -10 b 44 496 201 -10 44 132 l 44 507 b 438 1026 44 817 156 1026 b 831 507 719 1026 831 817 l 831 496 b 438 -10 831 132 674 -10 m 438 233 b 546 368 500 233 546 271 l 546 649 b 438 785 546 729 515 785 b 329 649 360 785 329 729 l 329 368 b 438 233 329 271 375 233 "},"1":{"ha":694,"x_min":0,"x_max":0,"o":"m 301 617 l 68 617 l 68 832 l 307 832 l 347 1013 l 585 1013 l 585 0 l 301 0 "},"2":{"ha":840,"x_min":0,"x_max":0,"o":"m 54 215 l 360 504 b 489 679 413 554 489 629 l 489 708 b 410 788 489 754 458 788 b 324 665 354 788 318 746 l 47 665 b 428 1026 38 897 192 1026 b 779 719 629 1026 779 915 b 594 383 779 590 722 493 l 422 232 l 786 232 l 786 0 l 54 0 "},"3":{"ha":863,"x_min":0,"x_max":0,"o":"m 414 -14 b 35 308 188 -14 31 103 l 313 308 b 424 219 314 253 358 219 b 525 304 483 219 525 254 l 525 324 b 422 410 525 382 488 410 l 299 410 l 299 611 l 397 611 b 504 694 467 611 504 644 l 504 714 b 415 793 504 764 469 793 b 314 708 360 793 321 765 l 40 708 b 435 1026 46 915 199 1026 b 786 753 643 1026 786 926 b 636 539 786 649 725 568 l 636 529 b 814 300 744 511 814 422 b 414 -14 814 113 668 -14 "},"4":{"ha":925,"x_min":0,"x_max":0,"o":"m 481 192 l 42 192 l 42 383 l 349 1013 l 647 1013 l 361 433 l 361 421 l 482 421 l 531 614 l 764 614 l 764 421 l 890 421 l 890 192 l 764 192 l 764 0 l 481 0 "},"5":{"ha":850,"x_min":0,"x_max":0,"o":"m 410 -14 b 54 290 189 -14 49 108 l 325 290 b 419 225 332 253 371 225 b 517 319 482 225 517 263 l 517 353 b 422 444 517 413 478 444 b 329 374 374 444 335 417 l 53 374 l 85 1013 l 756 1013 l 756 779 l 340 779 l 319 621 l 331 617 b 492 671 367 650 431 671 b 807 335 681 671 807 550 b 410 -14 807 126 656 -14 "},"6":{"ha":882,"x_min":0,"x_max":0,"o":"m 444 -14 b 44 478 214 -14 44 107 l 44 535 b 472 1026 44 889 215 1026 b 821 740 669 1026 811 917 l 547 740 b 453 796 539 775 506 796 b 332 618 376 796 332 739 l 332 574 l 343 574 b 544 674 375 633 456 674 b 843 349 722 674 843 557 b 444 -14 843 101 682 -14 m 458 225 b 553 326 525 225 553 271 l 553 363 b 458 464 553 417 525 464 b 363 393 411 464 375 435 l 363 328 b 458 225 363 260 403 225 "},"7":{"ha":849,"x_min":0,"x_max":0,"o":"m 229 0 b 350 465 229 146 242 268 l 503 744 l 503 767 l 263 767 l 263 618 l 39 618 l 39 1013 l 810 1013 l 810 807 l 600 350 b 519 0 561 265 519 121 l 229 0 "},"8":{"ha":881,"x_min":0,"x_max":0,"o":"m 440 -14 b 47 285 189 -14 47 111 b 228 531 47 407 115 508 l 228 540 b 71 753 135 567 71 644 b 440 1026 71 925 214 1026 b 810 753 667 1026 810 925 b 653 540 810 651 753 569 l 653 531 b 833 285 760 510 833 419 b 440 -14 833 111 692 -14 m 440 606 b 528 690 494 606 528 638 l 528 717 b 440 800 528 765 497 800 b 351 717 382 800 351 765 l 351 690 b 440 606 351 638 386 606 m 440 213 b 543 310 503 213 543 243 l 543 335 b 440 432 543 392 511 432 b 336 335 369 432 336 392 l 336 310 b 440 213 336 243 378 213 "},"9":{"ha":881,"x_min":0,"x_max":0,"o":"m 408 -14 b 60 272 211 -14 69 96 l 333 272 b 428 217 342 238 375 217 b 549 394 504 217 549 274 l 549 439 l 538 439 b 336 339 506 378 425 339 b 38 664 158 339 38 456 b 436 1026 38 911 199 1026 b 836 535 667 1026 836 906 l 836 478 b 408 -14 836 124 665 -14 m 422 549 b 518 619 469 549 506 578 l 518 685 b 422 788 518 753 478 788 b 328 686 356 788 328 742 l 328 650 b 422 549 328 596 356 549 "},"A":{"ha":1051,"x_min":0,"x_max":0,"o":"m 319 1013 l 731 1013 l 1054 0 l 761 0 l 711 168 l 332 168 l 282 0 l -3 0 m 643 392 l 561 664 l 526 786 l 517 786 l 482 664 l 400 392 "},"Á":{"ha":1051,"x_min":0,"x_max":0,"o":"m 494 1267 l 767 1267 l 631 1088 l 422 1088 m 319 1013 l 731 1013 l 1054 0 l 761 0 l 711 168 l 332 168 l 282 0 l -3 0 m 643 392 l 561 664 l 526 786 l 517 786 l 482 664 l 400 392 "},"Ă":{"ha":1051,"x_min":0,"x_max":0,"o":"m 525 1072 b 272 1300 375 1072 272 1164 l 446 1300 b 525 1222 446 1247 479 1222 b 604 1300 569 1222 604 1247 l 776 1300 b 525 1072 776 1164 675 1072 m 319 1013 l 731 1013 l 1054 0 l 761 0 l 711 168 l 332 168 l 282 0 l -3 0 m 643 392 l 561 664 l 526 786 l 517 786 l 482 664 l 400 392 "},"Â":{"ha":1051,"x_min":0,"x_max":0,"o":"m 393 1267 l 661 1267 l 821 1088 l 592 1088 l 526 1164 l 461 1088 l 233 1088 m 319 1013 l 731 1013 l 1054 0 l 761 0 l 711 168 l 332 168 l 282 0 l -3 0 m 643 392 l 561 664 l 526 786 l 517 786 l 482 664 l 400 392 "},"Ä":{"ha":1051,"x_min":0,"x_max":0,"o":"m 214 1267 l 492 1267 l 492 1088 l 214 1088 m 560 1267 l 838 1267 l 838 1088 l 560 1088 m 319 1013 l 731 1013 l 1054 0 l 761 0 l 711 168 l 332 168 l 282 0 l -3 0 m 643 392 l 561 664 l 526 786 l 517 786 l 482 664 l 400 392 "},"À":{"ha":1051,"x_min":0,"x_max":0,"o":"m 285 1267 l 557 1267 l 631 1088 l 421 1088 m 319 1013 l 731 1013 l 1054 0 l 761 0 l 711 168 l 332 168 l 282 0 l -3 0 m 643 392 l 561 664 l 526 786 l 517 786 l 482 664 l 400 392 "},"Ā":{"ha":1051,"x_min":0,"x_max":0,"o":"m 269 1263 l 782 1263 l 782 1083 l 269 1083 m 319 1013 l 731 1013 l 1054 0 l 761 0 l 711 168 l 332 168 l 282 0 l -3 0 m 643 392 l 561 664 l 526 786 l 517 786 l 482 664 l 400 392 "},"Ą":{"ha":1051,"x_min":0,"x_max":0,"o":"m 319 1013 l 731 1013 l 1054 0 l 971 0 l 963 -31 b 1029 -106 949 -83 963 -106 l 1121 -106 l 1086 -278 l 954 -278 b 772 -143 838 -278 772 -229 b 838 0 772 -89 801 -43 l 761 0 l 711 168 l 332 168 l 282 0 l -3 0 m 643 392 l 561 664 l 526 786 l 517 786 l 482 664 l 400 392 "},"Å":{"ha":1051,"x_min":0,"x_max":0,"o":"m 526 1074 b 344 1243 417 1074 344 1143 b 526 1413 344 1343 417 1413 b 708 1243 638 1413 708 1343 b 526 1074 708 1143 638 1074 m 526 1192 b 576 1243 556 1192 576 1213 b 526 1294 576 1274 556 1294 b 478 1243 497 1294 478 1274 b 526 1192 478 1213 497 1192 m 319 1013 l 731 1013 l 1054 0 l 761 0 l 711 168 l 332 168 l 282 0 l -3 0 m 643 392 l 561 664 l 526 786 l 517 786 l 482 664 l 400 392 "},"Ã":{"ha":1051,"x_min":0,"x_max":0,"o":"m 614 1079 b 443 1136 539 1081 510 1135 b 353 1082 401 1136 376 1107 l 246 1154 b 442 1322 294 1288 381 1324 b 615 1268 525 1319 546 1269 b 700 1325 674 1268 692 1310 l 811 1257 b 614 1079 768 1129 688 1078 m 319 1013 l 731 1013 l 1054 0 l 761 0 l 711 168 l 332 168 l 282 0 l -3 0 m 643 392 l 561 664 l 526 786 l 517 786 l 482 664 l 400 392 "},"Æ":{"ha":1399,"x_min":0,"x_max":0,"o":"m 319 1013 l 1336 1013 l 1336 763 l 811 763 l 853 628 l 1261 628 l 1261 394 l 928 394 l 975 250 l 1336 250 l 1336 0 l 761 0 l 707 168 l 335 168 l 282 0 l -3 0 m 635 392 l 586 560 l 526 779 l 517 779 l 456 556 l 408 392 "},"B":{"ha":999,"x_min":0,"x_max":0,"o":"m 88 1013 l 611 1013 b 946 753 851 1013 946 908 b 769 532 946 639 882 551 l 769 521 b 974 288 892 514 974 421 b 583 0 974 78 817 0 l 88 0 m 374 801 l 374 621 l 531 621 b 642 703 603 621 642 651 l 642 722 b 531 801 642 783 597 801 m 374 414 l 374 211 l 546 211 b 664 300 617 211 664 240 l 664 325 b 546 414 664 378 626 414 "},"C":{"ha":1065,"x_min":0,"x_max":0,"o":"m 549 -14 b 43 504 201 -14 43 196 l 43 507 b 549 1025 43 843 243 1025 b 1024 651 815 1025 1001 875 l 719 651 b 549 769 696 726 632 769 b 353 589 414 769 353 697 l 353 422 b 549 242 353 297 432 242 b 719 363 631 242 700 290 l 1024 363 b 549 -14 1001 138 804 -14 "},"Ć":{"ha":1065,"x_min":0,"x_max":0,"o":"m 493 1267 l 765 1267 l 629 1088 l 421 1088 m 549 -14 b 43 504 201 -14 43 196 l 43 507 b 549 1025 43 843 243 1025 b 1024 651 815 1025 1001 875 l 719 651 b 549 769 696 726 632 769 b 353 589 414 769 353 697 l 353 422 b 549 242 353 297 432 242 b 719 363 631 242 700 290 l 1024 363 b 549 -14 1001 138 804 -14 "},"Č":{"ha":1065,"x_min":0,"x_max":0,"o":"m 231 1267 l 460 1267 l 525 1190 l 590 1267 l 819 1267 l 660 1088 l 392 1088 m 549 -14 b 43 504 201 -14 43 196 l 43 507 b 549 1025 43 843 243 1025 b 1024 651 815 1025 1001 875 l 719 651 b 549 769 696 726 632 769 b 353 589 414 769 353 697 l 353 422 b 549 242 353 297 432 242 b 719 363 631 242 700 290 l 1024 363 b 549 -14 1001 138 804 -14 "},"Ç":{"ha":1065,"x_min":0,"x_max":0,"o":"m 531 -368 b 294 -178 399 -368 292 -297 l 464 -178 b 518 -232 464 -203 478 -232 b 574 -179 556 -232 574 -210 b 503 -128 574 -142 547 -128 l 474 -128 l 474 -10 b 43 504 179 18 43 219 l 43 507 b 549 1025 43 843 243 1025 b 1024 651 815 1025 1001 875 l 719 651 b 549 769 696 726 632 769 b 353 589 414 769 353 697 l 353 422 b 549 242 353 297 432 242 b 719 363 631 242 700 290 l 1024 363 b 621 -10 1004 160 840 17 l 621 -47 b 760 -192 710 -56 760 -112 b 531 -368 760 -301 661 -368 "},"Ċ":{"ha":1065,"x_min":0,"x_max":0,"o":"m 385 1267 l 663 1267 l 663 1088 l 385 1088 m 549 -14 b 43 504 201 -14 43 196 l 43 507 b 549 1025 43 843 243 1025 b 1024 651 815 1025 1001 875 l 719 651 b 549 769 696 726 632 769 b 353 589 414 769 353 697 l 353 422 b 549 242 353 297 432 242 b 719 363 631 242 700 290 l 1024 363 b 549 -14 1001 138 804 -14 "},"D":{"ha":1075,"x_min":0,"x_max":0,"o":"m 88 1014 l 526 1014 b 1032 511 872 1014 1032 810 l 1032 503 b 526 0 1032 161 829 0 l 88 0 m 526 250 b 721 425 661 250 721 321 l 721 589 b 526 764 721 694 660 764 l 383 764 l 383 250 "},"Ð":{"ha":1075,"x_min":0,"x_max":0,"o":"m 88 424 l 18 424 l 18 589 l 88 589 l 88 1014 l 526 1014 b 1032 511 872 1014 1032 810 l 1032 503 b 526 0 1032 161 829 0 l 88 0 m 526 250 b 721 425 661 250 721 321 l 721 589 b 526 764 721 694 660 764 l 383 764 l 383 589 l 485 589 l 485 424 l 383 424 l 383 250 "},"Ď":{"ha":1075,"x_min":0,"x_max":0,"o":"m 263 1267 l 492 1267 l 557 1190 l 622 1267 l 851 1267 l 692 1088 l 424 1088 m 88 1014 l 526 1014 b 1032 511 872 1014 1032 810 l 1032 503 b 526 0 1032 161 829 0 l 88 0 m 526 250 b 721 425 661 250 721 321 l 721 589 b 526 764 721 694 660 764 l 383 764 l 383 250 "},"Đ":{"ha":1075,"x_min":0,"x_max":0,"o":"m 88 424 l 18 424 l 18 589 l 88 589 l 88 1014 l 526 1014 b 1032 511 872 1014 1032 810 l 1032 503 b 526 0 1032 161 829 0 l 88 0 m 526 250 b 721 425 661 250 721 321 l 721 589 b 526 764 721 694 660 764 l 383 764 l 383 589 l 485 589 l 485 424 l 383 424 l 383 250 "},"E":{"ha":968,"x_min":0,"x_max":0,"o":"m 88 1013 l 906 1013 l 906 763 l 383 763 l 383 628 l 832 628 l 832 394 l 383 394 l 383 250 l 906 250 l 906 0 l 88 0 "},"É":{"ha":968,"x_min":0,"x_max":0,"o":"m 486 1267 l 758 1267 l 622 1088 l 414 1088 m 88 1013 l 906 1013 l 906 763 l 383 763 l 383 628 l 832 628 l 832 394 l 383 394 l 383 250 l 906 250 l 906 0 l 88 0 "},"Ě":{"ha":968,"x_min":0,"x_max":0,"o":"m 224 1267 l 453 1267 l 518 1190 l 583 1267 l 813 1267 l 653 1088 l 385 1088 m 88 1013 l 906 1013 l 906 763 l 383 763 l 383 628 l 832 628 l 832 394 l 383 394 l 383 250 l 906 250 l 906 0 l 88 0 "},"Ê":{"ha":968,"x_min":0,"x_max":0,"o":"m 385 1267 l 653 1267 l 813 1088 l 583 1088 l 518 1164 l 453 1088 l 225 1088 m 88 1013 l 906 1013 l 906 763 l 383 763 l 383 628 l 832 628 l 832 394 l 383 394 l 383 250 l 906 250 l 906 0 l 88 0 "},"Ë":{"ha":968,"x_min":0,"x_max":0,"o":"m 206 1267 l 483 1267 l 483 1088 l 206 1088 m 551 1267 l 829 1267 l 829 1088 l 551 1088 m 88 1013 l 906 1013 l 906 763 l 383 763 l 383 628 l 832 628 l 832 394 l 383 394 l 383 250 l 906 250 l 906 0 l 88 0 "},"Ė":{"ha":968,"x_min":0,"x_max":0,"o":"m 378 1267 l 656 1267 l 656 1088 l 378 1088 m 88 1013 l 906 1013 l 906 763 l 383 763 l 383 628 l 832 628 l 832 394 l 383 394 l 383 250 l 906 250 l 906 0 l 88 0 "},"È":{"ha":968,"x_min":0,"x_max":0,"o":"m 276 1267 l 549 1267 l 622 1088 l 413 1088 m 88 1013 l 906 1013 l 906 763 l 383 763 l 383 628 l 832 628 l 832 394 l 383 394 l 383 250 l 906 250 l 906 0 l 88 0 "},"Ē":{"ha":968,"x_min":0,"x_max":0,"o":"m 261 1263 l 774 1263 l 774 1083 l 261 1083 m 88 1013 l 906 1013 l 906 763 l 383 763 l 383 628 l 832 628 l 832 394 l 383 394 l 383 250 l 906 250 l 906 0 l 88 0 "},"Ę":{"ha":968,"x_min":0,"x_max":0,"o":"m 88 1013 l 906 1013 l 906 763 l 383 763 l 383 628 l 832 628 l 832 394 l 383 394 l 383 250 l 906 250 l 906 0 l 776 0 l 768 -31 b 835 -106 754 -83 768 -106 l 926 -106 l 892 -278 l 760 -278 b 578 -143 643 -278 578 -229 b 643 0 578 -89 607 -43 l 88 0 "},"F":{"ha":878,"x_min":0,"x_max":0,"o":"m 88 1013 l 847 1013 l 847 763 l 383 763 l 383 593 l 792 593 l 792 356 l 383 356 l 383 0 l 88 0 "},"G":{"ha":1115,"x_min":0,"x_max":0,"o":"m 494 -14 b 43 492 208 -14 43 147 l 43 497 b 560 1026 43 851 254 1026 b 1043 664 836 1026 1028 890 l 739 664 b 556 771 717 736 649 771 b 353 586 419 771 353 696 l 353 418 b 549 233 353 292 429 233 b 744 354 658 233 726 272 l 526 354 l 526 561 l 1051 561 l 1051 0 l 835 0 l 814 142 l 804 142 b 494 -14 764 44 644 -14 "},"Ğ":{"ha":1115,"x_min":0,"x_max":0,"o":"m 549 1082 b 296 1310 399 1082 296 1174 l 469 1310 b 549 1232 469 1257 503 1232 b 628 1310 593 1232 628 1257 l 800 1310 b 549 1082 800 1174 699 1082 m 494 -14 b 43 492 208 -14 43 147 l 43 497 b 560 1026 43 851 254 1026 b 1043 664 836 1026 1028 890 l 739 664 b 556 771 717 736 649 771 b 353 586 419 771 353 696 l 353 418 b 549 233 353 292 429 233 b 744 354 658 233 726 272 l 526 354 l 526 561 l 1051 561 l 1051 0 l 835 0 l 814 142 l 804 142 b 494 -14 764 44 644 -14 "},"Ģ":{"ha":1115,"x_min":0,"x_max":0,"o":"m 494 -14 b 43 492 208 -14 43 147 l 43 497 b 560 1026 43 851 254 1026 b 1043 664 836 1026 1028 890 l 739 664 b 556 771 717 736 649 771 b 353 586 419 771 353 696 l 353 418 b 549 233 353 292 429 233 b 744 354 658 233 726 272 l 526 354 l 526 561 l 1051 561 l 1051 0 l 835 0 l 814 142 l 804 142 b 494 -14 764 44 644 -14 m 421 -347 l 458 -349 b 550 -272 524 -349 550 -321 l 550 -256 l 425 -256 l 425 -75 l 674 -75 l 674 -294 b 486 -482 674 -429 599 -482 l 421 -482 "},"Ġ":{"ha":1115,"x_min":0,"x_max":0,"o":"m 410 1276 l 688 1276 l 688 1097 l 410 1097 m 494 -14 b 43 492 208 -14 43 147 l 43 497 b 560 1026 43 851 254 1026 b 1043 664 836 1026 1028 890 l 739 664 b 556 771 717 736 649 771 b 353 586 419 771 353 696 l 353 418 b 549 233 353 292 429 233 b 744 354 658 233 726 272 l 526 354 l 526 561 l 1051 561 l 1051 0 l 835 0 l 814 142 l 804 142 b 494 -14 764 44 644 -14 "},"H":{"ha":1078,"x_min":0,"x_max":0,"o":"m 88 1013 l 383 1013 l 383 638 l 696 638 l 696 1013 l 990 1013 l 990 0 l 696 0 l 696 388 l 383 388 l 383 0 l 88 0 "},"Ħ":{"ha":1078,"x_min":0,"x_max":0,"o":"m 88 729 l -19 729 l -19 938 l 88 938 l 88 1013 l 383 1013 l 383 938 l 696 938 l 696 1013 l 990 1013 l 990 938 l 1100 938 l 1100 729 l 990 729 l 990 0 l 696 0 l 696 388 l 383 388 l 383 0 l 88 0 m 696 638 l 696 729 l 383 729 l 383 638 "},"I":{"ha":471,"x_min":0,"x_max":0,"o":"m 88 1013 l 383 1013 l 383 0 l 88 0 "},"Í":{"ha":471,"x_min":0,"x_max":0,"o":"m 204 1267 l 476 1267 l 340 1088 l 132 1088 m 88 1013 l 383 1013 l 383 0 l 88 0 "},"Î":{"ha":471,"x_min":0,"x_max":0,"o":"m 103 1267 l 371 1267 l 531 1088 l 301 1088 l 236 1164 l 171 1088 l -57 1088 m 88 1013 l 383 1013 l 383 0 l 88 0 "},"Ï":{"ha":471,"x_min":0,"x_max":0,"o":"m -76 1267 l 201 1267 l 201 1088 l -76 1088 m 269 1267 l 547 1267 l 547 1088 l 269 1088 m 88 1013 l 383 1013 l 383 0 l 88 0 "},"İ":{"ha":471,"x_min":0,"x_max":0,"o":"m 96 1267 l 374 1267 l 374 1088 l 96 1088 m 88 1013 l 383 1013 l 383 0 l 88 0 "},"Ì":{"ha":471,"x_min":0,"x_max":0,"o":"m -6 1267 l 267 1267 l 340 1088 l 131 1088 m 88 1013 l 383 1013 l 383 0 l 88 0 "},"Ī":{"ha":471,"x_min":0,"x_max":0,"o":"m -21 1263 l 492 1263 l 492 1083 l -21 1083 m 88 1013 l 383 1013 l 383 0 l 88 0 "},"Į":{"ha":471,"x_min":0,"x_max":0,"o":"m 88 1013 l 383 1013 l 383 0 l 299 0 l 290 -31 b 357 -106 276 -83 290 -106 l 449 -106 l 414 -278 l 282 -278 b 100 -143 165 -278 100 -229 b 165 0 100 -89 129 -43 l 88 0 "},"J":{"ha":631,"x_min":0,"x_max":0,"o":"m 36 253 l 249 253 l 249 1013 l 543 1013 l 543 229 b 315 0 543 74 451 0 l 36 0 "},"K":{"ha":1061,"x_min":0,"x_max":0,"o":"m 88 1013 l 383 1013 l 383 611 l 681 1013 l 1043 1013 l 688 583 l 1057 0 l 699 0 l 479 357 l 383 250 l 383 0 l 88 0 "},"Ķ":{"ha":1061,"x_min":0,"x_max":0,"o":"m 88 1013 l 383 1013 l 383 611 l 681 1013 l 1043 1013 l 688 583 l 1057 0 l 699 0 l 479 357 l 383 250 l 383 0 l 88 0 m 403 -347 l 440 -349 b 532 -272 506 -349 532 -321 l 532 -256 l 407 -256 l 407 -75 l 656 -75 l 656 -294 b 468 -482 656 -429 581 -482 l 403 -482 "},"L":{"ha":856,"x_min":0,"x_max":0,"o":"m 88 1013 l 383 1013 l 383 260 l 819 260 l 819 0 l 88 0 "},"Ĺ":{"ha":856,"x_min":0,"x_max":0,"o":"m 204 1267 l 476 1267 l 340 1088 l 132 1088 m 88 1013 l 383 1013 l 383 260 l 819 260 l 819 0 l 88 0 "},"Ľ":{"ha":856,"x_min":0,"x_max":0,"o":"m -58 1267 l 171 1267 l 236 1190 l 301 1267 l 531 1267 l 371 1088 l 103 1088 m 88 1013 l 383 1013 l 383 260 l 819 260 l 819 0 l 88 0 "},"Ļ":{"ha":856,"x_min":0,"x_max":0,"o":"m 88 1013 l 383 1013 l 383 260 l 819 260 l 819 0 l 88 0 m 318 -347 l 356 -349 b 447 -272 421 -349 447 -321 l 447 -256 l 322 -256 l 322 -75 l 571 -75 l 571 -294 b 383 -482 571 -429 496 -482 l 318 -482 "},"Ł":{"ha":856,"x_min":0,"x_max":0,"o":"m 88 382 l 7 364 l 7 567 l 88 585 l 88 1013 l 383 1013 l 383 649 l 585 693 l 585 490 l 383 446 l 383 260 l 819 260 l 819 0 l 88 0 "},"M":{"ha":1350,"x_min":0,"x_max":0,"o":"m 88 1013 l 524 1013 l 665 399 l 675 399 l 813 1013 l 1263 1013 l 1263 0 l 978 0 l 978 692 l 967 692 l 949 606 l 806 0 l 542 0 l 399 606 l 381 692 l 369 692 l 369 0 l 88 0 "},"N":{"ha":1082,"x_min":0,"x_max":0,"o":"m 88 1013 l 465 1013 l 688 486 l 706 443 l 713 443 l 713 1013 l 994 1013 l 994 0 l 643 0 l 392 539 l 376 571 l 369 571 l 369 0 l 88 0 "},"Ń":{"ha":1082,"x_min":0,"x_max":0,"o":"m 524 1267 l 796 1267 l 660 1088 l 451 1088 m 88 1013 l 465 1013 l 688 486 l 706 443 l 713 443 l 713 1013 l 994 1013 l 994 0 l 643 0 l 392 539 l 376 571 l 369 571 l 369 0 l 88 0 "},"Ň":{"ha":1082,"x_min":0,"x_max":0,"o":"m 261 1267 l 490 1267 l 556 1190 l 621 1267 l 850 1267 l 690 1088 l 422 1088 m 88 1013 l 465 1013 l 688 486 l 706 443 l 713 443 l 713 1013 l 994 1013 l 994 0 l 643 0 l 392 539 l 376 571 l 369 571 l 369 0 l 88 0 "},"Ņ":{"ha":1082,"x_min":0,"x_max":0,"o":"m 88 1013 l 465 1013 l 688 486 l 706 443 l 713 443 l 713 1013 l 994 1013 l 994 0 l 643 0 l 392 539 l 376 571 l 369 571 l 369 0 l 88 0 m 426 -347 l 464 -349 b 556 -272 529 -349 556 -321 l 556 -256 l 431 -256 l 431 -75 l 679 -75 l 679 -294 b 492 -482 679 -429 604 -482 l 426 -482 "},"Ŋ":{"ha":1110,"x_min":0,"x_max":0,"o":"m 617 -61 l 744 -61 l 744 0 l 626 0 l 399 579 l 379 647 l 369 647 l 369 0 l 88 0 l 88 1013 l 481 1013 l 706 447 l 731 371 l 740 371 l 740 1013 l 1022 1013 l 1022 -3 b 793 -232 1022 -158 931 -232 l 617 -232 "},"Ñ":{"ha":1082,"x_min":0,"x_max":0,"o":"m 643 1079 b 472 1136 568 1081 539 1135 b 382 1082 431 1136 406 1107 l 275 1154 b 471 1322 324 1288 410 1324 b 644 1268 554 1319 575 1269 b 729 1325 703 1268 721 1310 l 840 1257 b 643 1079 797 1129 717 1078 m 88 1013 l 465 1013 l 688 486 l 706 443 l 713 443 l 713 1013 l 994 1013 l 994 0 l 643 0 l 392 539 l 376 571 l 369 571 l 369 0 l 88 0 "},"O":{"ha":1099,"x_min":0,"x_max":0,"o":"m 549 -14 b 43 504 201 -14 43 196 l 43 507 b 549 1025 43 843 243 1025 b 1056 507 854 1025 1056 843 l 1056 504 b 549 -14 1056 196 896 -14 m 549 242 b 744 422 665 242 744 297 l 744 589 b 549 769 744 697 683 769 b 353 589 414 769 353 697 l 353 422 b 549 242 353 297 432 242 "},"Ó":{"ha":1099,"x_min":0,"x_max":0,"o":"m 517 1267 l 789 1267 l 653 1088 l 444 1088 m 549 -14 b 43 504 201 -14 43 196 l 43 507 b 549 1025 43 843 243 1025 b 1056 507 854 1025 1056 843 l 1056 504 b 549 -14 1056 196 896 -14 m 549 242 b 744 422 665 242 744 297 l 744 589 b 549 769 744 697 683 769 b 353 589 414 769 353 697 l 353 422 b 549 242 353 297 432 242 "},"Ô":{"ha":1099,"x_min":0,"x_max":0,"o":"m 415 1267 l 683 1267 l 843 1088 l 614 1088 l 549 1164 l 483 1088 l 256 1088 m 549 -14 b 43 504 201 -14 43 196 l 43 507 b 549 1025 43 843 243 1025 b 1056 507 854 1025 1056 843 l 1056 504 b 549 -14 1056 196 896 -14 m 549 242 b 744 422 665 242 744 297 l 744 589 b 549 769 744 697 683 769 b 353 589 414 769 353 697 l 353 422 b 549 242 353 297 432 242 "},"Ö":{"ha":1099,"x_min":0,"x_max":0,"o":"m 236 1267 l 514 1267 l 514 1088 l 236 1088 m 582 1267 l 860 1267 l 860 1088 l 582 1088 m 549 -14 b 43 504 201 -14 43 196 l 43 507 b 549 1025 43 843 243 1025 b 1056 507 854 1025 1056 843 l 1056 504 b 549 -14 1056 196 896 -14 m 549 242 b 744 422 665 242 744 297 l 744 589 b 549 769 744 697 683 769 b 353 589 414 769 353 697 l 353 422 b 549 242 353 297 432 242 "},"Ò":{"ha":1099,"x_min":0,"x_max":0,"o":"m 307 1267 l 579 1267 l 653 1088 l 443 1088 m 549 -14 b 43 504 201 -14 43 196 l 43 507 b 549 1025 43 843 243 1025 b 1056 507 854 1025 1056 843 l 1056 504 b 549 -14 1056 196 896 -14 m 549 242 b 744 422 665 242 744 297 l 744 589 b 549 769 744 697 683 769 b 353 589 414 769 353 697 l 353 422 b 549 242 353 297 432 242 "},"Ő":{"ha":1099,"x_min":0,"x_max":0,"o":"m 376 1267 l 635 1267 l 500 1088 l 300 1088 m 731 1267 l 1006 1267 l 818 1088 l 597 1088 m 549 -14 b 43 504 201 -14 43 196 l 43 507 b 549 1025 43 843 243 1025 b 1056 507 854 1025 1056 843 l 1056 504 b 549 -14 1056 196 896 -14 m 549 242 b 744 422 665 242 744 297 l 744 589 b 549 769 744 697 683 769 b 353 589 414 769 353 697 l 353 422 b 549 242 353 297 432 242 "},"Ō":{"ha":1099,"x_min":0,"x_max":0,"o":"m 292 1263 l 804 1263 l 804 1083 l 292 1083 m 549 -14 b 43 504 201 -14 43 196 l 43 507 b 549 1025 43 843 243 1025 b 1056 507 854 1025 1056 843 l 1056 504 b 549 -14 1056 196 896 -14 m 549 242 b 744 422 665 242 744 297 l 744 589 b 549 769 744 697 683 769 b 353 589 414 769 353 697 l 353 422 b 549 242 353 297 432 242 "},"Ø":{"ha":1099,"x_min":0,"x_max":0,"o":"m 171 125 b 43 504 85 215 43 347 l 43 507 b 549 1025 43 843 243 1025 b 785 981 638 1025 717 1010 l 833 1047 l 1039 1047 l 922 886 b 1056 507 1007 799 1056 671 l 1056 504 b 549 -14 1056 196 896 -14 b 307 31 454 -14 374 1 l 261 -33 l 57 -33 m 353 422 b 356 382 353 408 354 394 l 626 760 b 549 769 604 767 578 769 b 353 589 414 769 353 697 l 353 422 m 549 242 b 744 422 665 242 744 297 l 744 589 b 740 633 744 604 743 619 l 467 253 b 549 242 492 246 519 242 "},"Õ":{"ha":1099,"x_min":0,"x_max":0,"o":"m 636 1079 b 465 1136 561 1081 532 1135 b 375 1082 424 1136 399 1107 l 268 1154 b 464 1322 317 1288 403 1324 b 638 1268 547 1319 568 1269 b 722 1325 696 1268 714 1310 l 833 1257 b 636 1079 790 1129 710 1078 m 549 -14 b 43 504 201 -14 43 196 l 43 507 b 549 1025 43 843 243 1025 b 1056 507 854 1025 1056 843 l 1056 504 b 549 -14 1056 196 896 -14 m 549 242 b 744 422 665 242 744 297 l 744 589 b 549 769 744 697 683 769 b 353 589 414 769 353 697 l 353 422 b 549 242 353 297 432 242 "},"Œ":{"ha":1517,"x_min":0,"x_max":0,"o":"m 547 0 b 43 501 203 0 42 203 l 43 510 b 547 1013 43 851 244 1013 l 1454 1013 l 1454 763 l 972 763 l 972 628 l 1379 628 l 1379 394 l 972 394 l 972 250 l 1454 250 l 1454 0 l 547 0 m 678 249 l 678 763 l 547 763 b 353 588 414 763 353 692 l 353 424 b 547 249 353 318 415 249 "},"P":{"ha":1014,"x_min":0,"x_max":0,"o":"m 88 1013 l 583 1013 b 974 656 849 1013 974 869 b 568 297 974 440 844 297 l 383 297 l 383 0 l 88 0 m 383 760 l 383 529 l 544 529 b 663 632 625 529 663 571 l 663 657 b 544 760 663 725 615 760 "},"Þ":{"ha":988,"x_min":0,"x_max":0,"o":"m 88 1013 l 383 1013 l 383 867 l 551 867 b 947 506 822 867 947 721 b 553 146 947 275 788 146 l 383 146 l 383 0 l 88 0 m 519 393 b 635 482 604 393 635 429 l 635 528 b 519 617 635 596 589 617 l 383 617 l 383 393 "},"Q":{"ha":1099,"x_min":0,"x_max":0,"o":"m 579 -233 b 432 -104 486 -233 431 -181 l 433 38 b 43 511 181 75 43 242 l 43 514 b 549 1025 43 847 243 1025 b 1056 514 854 1025 1056 847 l 1056 511 b 675 39 1056 246 921 79 l 675 -19 l 936 -19 l 936 -233 l 579 -233 m 550 269 b 746 450 667 269 746 325 l 746 589 b 550 769 746 697 685 769 b 354 589 415 769 354 697 l 354 450 b 550 269 354 325 433 269 "},"R":{"ha":1028,"x_min":0,"x_max":0,"o":"m 88 1013 l 597 1013 b 974 679 853 1013 974 878 b 764 389 974 536 892 429 l 988 0 l 643 0 l 461 339 l 383 339 l 383 0 l 88 0 m 383 760 l 383 557 l 544 557 b 663 646 625 557 663 593 l 663 671 b 544 760 663 729 615 760 "},"Ŕ":{"ha":1028,"x_min":0,"x_max":0,"o":"m 467 1267 l 739 1267 l 603 1088 l 394 1088 m 88 1013 l 597 1013 b 974 679 853 1013 974 878 b 764 389 974 536 892 429 l 988 0 l 643 0 l 461 339 l 383 339 l 383 0 l 88 0 m 383 760 l 383 557 l 544 557 b 663 646 625 557 663 593 l 663 671 b 544 760 663 729 615 760 "},"Ř":{"ha":1028,"x_min":0,"x_max":0,"o":"m 204 1267 l 433 1267 l 499 1190 l 564 1267 l 793 1267 l 633 1088 l 365 1088 m 88 1013 l 597 1013 b 974 679 853 1013 974 878 b 764 389 974 536 892 429 l 988 0 l 643 0 l 461 339 l 383 339 l 383 0 l 88 0 m 383 760 l 383 557 l 544 557 b 663 646 625 557 663 593 l 663 671 b 544 760 663 729 615 760 "},"Ŗ":{"ha":1028,"x_min":0,"x_max":0,"o":"m 88 1013 l 597 1013 b 974 679 853 1013 974 878 b 764 389 974 536 892 429 l 988 0 l 643 0 l 461 339 l 383 339 l 383 0 l 88 0 m 383 760 l 383 557 l 544 557 b 663 646 625 557 663 593 l 663 671 b 544 760 663 729 615 760 m 396 -347 l 433 -349 b 525 -272 499 -349 525 -321 l 525 -256 l 400 -256 l 400 -75 l 649 -75 l 649 -294 b 461 -482 649 -429 574 -482 l 396 -482 "},"S":{"ha":960,"x_min":0,"x_max":0,"o":"m 471 -14 b 35 317 189 -14 32 118 l 333 317 b 479 213 335 246 389 213 b 604 290 560 213 604 236 b 382 392 604 363 521 367 b 49 699 160 433 49 529 b 471 1025 49 921 218 1025 b 896 719 740 1025 893 915 l 599 719 b 471 804 597 775 547 804 b 364 736 403 804 364 781 b 568 643 364 672 426 665 b 918 315 778 610 918 536 b 471 -14 918 92 739 -14 "},"Ś":{"ha":960,"x_min":0,"x_max":0,"o":"m 446 1267 l 718 1267 l 582 1088 l 374 1088 m 471 -14 b 35 317 189 -14 32 118 l 333 317 b 479 213 335 246 389 213 b 604 290 560 213 604 236 b 382 392 604 363 521 367 b 49 699 160 433 49 529 b 471 1025 49 921 218 1025 b 896 719 740 1025 893 915 l 599 719 b 471 804 597 775 547 804 b 364 736 403 804 364 781 b 568 643 364 672 426 665 b 918 315 778 610 918 536 b 471 -14 918 92 739 -14 "},"Š":{"ha":960,"x_min":0,"x_max":0,"o":"m 183 1267 l 413 1267 l 478 1190 l 543 1267 l 772 1267 l 613 1088 l 344 1088 m 471 -14 b 35 317 189 -14 32 118 l 333 317 b 479 213 335 246 389 213 b 604 290 560 213 604 236 b 382 392 604 363 521 367 b 49 699 160 433 49 529 b 471 1025 49 921 218 1025 b 896 719 740 1025 893 915 l 599 719 b 471 804 597 775 547 804 b 364 736 403 804 364 781 b 568 643 364 672 426 665 b 918 315 778 610 918 536 b 471 -14 918 92 739 -14 "},"Ş":{"ha":960,"x_min":0,"x_max":0,"o":"m 465 -368 b 229 -178 333 -368 226 -297 l 399 -178 b 453 -232 399 -203 413 -232 b 508 -179 490 -232 508 -210 b 438 -128 508 -142 482 -128 l 408 -128 l 408 -11 b 35 317 165 7 32 133 l 333 317 b 479 213 335 246 389 213 b 604 290 560 213 604 236 b 382 392 604 363 521 367 b 49 699 160 433 49 529 b 471 1025 49 921 218 1025 b 896 719 740 1025 893 915 l 599 719 b 471 804 597 775 547 804 b 364 736 403 804 364 781 b 568 643 364 672 426 665 b 918 315 778 610 918 536 b 556 -10 918 117 776 11 l 556 -47 b 694 -192 644 -56 694 -112 b 465 -368 694 -301 596 -368 "},"Ș":{"ha":960,"x_min":0,"x_max":0,"o":"m 471 -14 b 35 317 189 -14 32 118 l 333 317 b 479 213 335 246 389 213 b 604 290 560 213 604 236 b 382 392 604 363 521 367 b 49 699 160 433 49 529 b 471 1025 49 921 218 1025 b 896 719 740 1025 893 915 l 599 719 b 471 804 597 775 547 804 b 364 736 403 804 364 781 b 568 643 364 672 426 665 b 918 315 778 610 918 536 b 471 -14 918 92 739 -14 m 354 -347 l 392 -349 b 483 -272 457 -349 483 -321 l 483 -256 l 358 -256 l 358 -75 l 607 -75 l 607 -294 b 419 -482 607 -429 532 -482 l 354 -482 "},"ẞ":{"ha":1019,"x_min":0,"x_max":0,"o":"m 88 1013 l 926 1013 l 926 758 l 797 569 l 797 557 b 994 301 915 538 994 435 b 625 0 994 108 863 0 l 465 0 l 465 226 l 558 226 b 689 319 651 226 689 263 l 689 353 b 558 446 689 422 635 446 l 517 446 l 517 571 l 650 779 l 383 779 l 383 0 l 88 0 "},"T":{"ha":888,"x_min":0,"x_max":0,"o":"m 592 760 l 592 0 l 297 0 l 297 760 l 11 760 l 11 1013 l 876 1013 l 876 760 "},"Ŧ":{"ha":888,"x_min":0,"x_max":0,"o":"m 211 589 l 297 589 l 297 760 l 11 760 l 11 1013 l 876 1013 l 876 760 l 592 760 l 592 589 l 678 589 l 678 424 l 592 424 l 592 0 l 297 0 l 297 424 l 211 424 "},"Ť":{"ha":888,"x_min":0,"x_max":0,"o":"m 150 1267 l 379 1267 l 444 1190 l 510 1267 l 739 1267 l 579 1088 l 311 1088 m 592 760 l 592 0 l 297 0 l 297 760 l 11 760 l 11 1013 l 876 1013 l 876 760 "},"Ţ":{"ha":888,"x_min":0,"x_max":0,"o":"m 426 -368 b 190 -178 294 -368 188 -297 l 360 -178 b 414 -232 360 -203 374 -232 b 469 -179 451 -232 469 -210 b 399 -128 469 -142 443 -128 l 369 -128 l 369 0 l 297 0 l 297 760 l 11 760 l 11 1013 l 876 1013 l 876 760 l 592 760 l 592 0 l 517 0 l 517 -47 b 656 -192 606 -56 656 -112 b 426 -368 656 -301 557 -368 "},"Ț":{"ha":888,"x_min":0,"x_max":0,"o":"m 592 760 l 592 0 l 297 0 l 297 760 l 11 760 l 11 1013 l 876 1013 l 876 760 m 315 -347 l 353 -349 b 444 -272 418 -349 444 -321 l 444 -256 l 319 -256 l 319 -75 l 568 -75 l 568 -294 b 381 -482 568 -429 493 -482 l 315 -482 "},"U":{"ha":1067,"x_min":0,"x_max":0,"o":"m 532 -14 b 82 396 217 -14 82 151 l 82 1013 l 375 1013 l 375 413 b 535 246 375 308 428 246 b 692 413 629 246 692 301 l 692 1013 l 985 1013 l 985 396 b 532 -14 985 135 803 -14 "},"Ú":{"ha":1067,"x_min":0,"x_max":0,"o":"m 503 1267 l 775 1267 l 639 1088 l 431 1088 m 532 -14 b 82 396 217 -14 82 151 l 82 1013 l 375 1013 l 375 413 b 535 246 375 308 428 246 b 692 413 629 246 692 301 l 692 1013 l 985 1013 l 985 396 b 532 -14 985 135 803 -14 "},"Û":{"ha":1067,"x_min":0,"x_max":0,"o":"m 401 1267 l 669 1267 l 829 1088 l 600 1088 l 535 1164 l 469 1088 l 242 1088 m 532 -14 b 82 396 217 -14 82 151 l 82 1013 l 375 1013 l 375 413 b 535 246 375 308 428 246 b 692 413 629 246 692 301 l 692 1013 l 985 1013 l 985 396 b 532 -14 985 135 803 -14 "},"Ü":{"ha":1067,"x_min":0,"x_max":0,"o":"m 222 1267 l 500 1267 l 500 1088 l 222 1088 m 568 1267 l 846 1267 l 846 1088 l 568 1088 m 532 -14 b 82 396 217 -14 82 151 l 82 1013 l 375 1013 l 375 413 b 535 246 375 308 428 246 b 692 413 629 246 692 301 l 692 1013 l 985 1013 l 985 396 b 532 -14 985 135 803 -14 "},"Ù":{"ha":1067,"x_min":0,"x_max":0,"o":"m 293 1267 l 565 1267 l 639 1088 l 429 1088 m 532 -14 b 82 396 217 -14 82 151 l 82 1013 l 375 1013 l 375 413 b 535 246 375 308 428 246 b 692 413 629 246 692 301 l 692 1013 l 985 1013 l 985 396 b 532 -14 985 135 803 -14 "},"Ű":{"ha":1067,"x_min":0,"x_max":0,"o":"m 363 1267 l 621 1267 l 486 1088 l 286 1088 m 717 1267 l 992 1267 l 804 1088 l 583 1088 m 532 -14 b 82 396 217 -14 82 151 l 82 1013 l 375 1013 l 375 413 b 535 246 375 308 428 246 b 692 413 629 246 692 301 l 692 1013 l 985 1013 l 985 396 b 532 -14 985 135 803 -14 "},"Ū":{"ha":1067,"x_min":0,"x_max":0,"o":"m 278 1263 l 790 1263 l 790 1083 l 278 1083 m 532 -14 b 82 396 217 -14 82 151 l 82 1013 l 375 1013 l 375 413 b 535 246 375 308 428 246 b 692 413 629 246 692 301 l 692 1013 l 985 1013 l 985 396 b 532 -14 985 135 803 -14 "},"Ų":{"ha":1067,"x_min":0,"x_max":0,"o":"m 606 -278 b 424 -143 489 -278 424 -229 b 479 -12 424 -93 447 -51 b 82 396 201 6 82 165 l 82 1013 l 375 1013 l 375 413 b 535 246 375 308 428 246 b 692 413 629 246 692 301 l 692 1013 l 985 1013 l 985 396 b 619 -8 985 164 842 21 l 614 -31 b 681 -106 600 -83 614 -106 l 772 -106 l 738 -278 l 606 -278 "},"Ů":{"ha":1067,"x_min":0,"x_max":0,"o":"m 535 1074 b 353 1243 425 1074 353 1143 b 535 1413 353 1343 425 1413 b 717 1243 646 1413 717 1343 b 535 1074 717 1143 646 1074 m 535 1192 b 585 1243 564 1192 585 1213 b 535 1294 585 1274 564 1294 b 486 1243 506 1294 486 1274 b 535 1192 486 1213 506 1192 m 532 -14 b 82 396 217 -14 82 151 l 82 1013 l 375 1013 l 375 413 b 535 246 375 308 428 246 b 692 413 629 246 692 301 l 692 1013 l 985 1013 l 985 396 b 532 -14 985 135 803 -14 "},"V":{"ha":1072,"x_min":0,"x_max":0,"o":"m 4 1013 l 333 1013 l 513 349 l 531 279 l 542 279 l 560 349 l 739 1013 l 1068 1013 l 735 0 l 339 0 "},"W":{"ha":1438,"x_min":0,"x_max":0,"o":"m 8 1013 l 314 1013 l 397 390 l 413 272 l 425 272 l 560 1013 l 878 1013 l 1013 272 l 1025 272 l 1038 369 l 1124 1013 l 1429 1013 l 1238 0 l 838 0 l 739 525 l 724 611 l 714 611 l 699 525 l 600 0 l 200 0 "},"Ẃ":{"ha":1438,"x_min":0,"x_max":0,"o":"m 693 1267 l 965 1267 l 829 1088 l 621 1088 m 8 1013 l 314 1013 l 397 390 l 413 272 l 425 272 l 560 1013 l 878 1013 l 1013 272 l 1025 272 l 1038 369 l 1124 1013 l 1429 1013 l 1238 0 l 838 0 l 739 525 l 724 611 l 714 611 l 699 525 l 600 0 l 200 0 "},"Ŵ":{"ha":1438,"x_min":0,"x_max":0,"o":"m 592 1267 l 860 1267 l 1019 1088 l 790 1088 l 725 1164 l 660 1088 l 432 1088 m 8 1013 l 314 1013 l 397 390 l 413 272 l 425 272 l 560 1013 l 878 1013 l 1013 272 l 1025 272 l 1038 369 l 1124 1013 l 1429 1013 l 1238 0 l 838 0 l 739 525 l 724 611 l 714 611 l 699 525 l 600 0 l 200 0 "},"Ẅ":{"ha":1438,"x_min":0,"x_max":0,"o":"m 413 1267 l 690 1267 l 690 1088 l 413 1088 m 758 1267 l 1036 1267 l 1036 1088 l 758 1088 m 8 1013 l 314 1013 l 397 390 l 413 272 l 425 272 l 560 1013 l 878 1013 l 1013 272 l 1025 272 l 1038 369 l 1124 1013 l 1429 1013 l 1238 0 l 838 0 l 739 525 l 724 611 l 714 611 l 699 525 l 600 0 l 200 0 "},"Ẁ":{"ha":1438,"x_min":0,"x_max":0,"o":"m 483 1267 l 756 1267 l 829 1088 l 619 1088 m 8 1013 l 314 1013 l 397 390 l 413 272 l 425 272 l 560 1013 l 878 1013 l 1013 272 l 1025 272 l 1038 369 l 1124 1013 l 1429 1013 l 1238 0 l 838 0 l 739 525 l 724 611 l 714 611 l 699 525 l 600 0 l 200 0 "},"X":{"ha":1093,"x_min":0,"x_max":0,"o":"m 342 528 l 21 1013 l 383 1013 l 544 721 l 557 721 l 721 1013 l 1071 1013 l 760 531 l 1092 0 l 732 0 l 547 317 l 536 317 l 347 0 l 0 0 "},"Y":{"ha":1051,"x_min":0,"x_max":0,"o":"m 378 372 l 13 1013 l 346 1013 l 488 721 l 519 656 l 531 656 l 563 721 l 704 1013 l 1036 1013 l 672 372 l 672 0 l 378 0 "},"Ý":{"ha":1051,"x_min":0,"x_max":0,"o":"m 494 1267 l 767 1267 l 631 1088 l 422 1088 m 378 372 l 13 1013 l 346 1013 l 488 721 l 519 656 l 531 656 l 563 721 l 704 1013 l 1036 1013 l 672 372 l 672 0 l 378 0 "},"Ŷ":{"ha":1051,"x_min":0,"x_max":0,"o":"m 393 1267 l 661 1267 l 821 1088 l 592 1088 l 526 1164 l 461 1088 l 233 1088 m 378 372 l 13 1013 l 346 1013 l 488 721 l 519 656 l 531 656 l 563 721 l 704 1013 l 1036 1013 l 672 372 l 672 0 l 378 0 "},"Ÿ":{"ha":1051,"x_min":0,"x_max":0,"o":"m 214 1267 l 492 1267 l 492 1088 l 214 1088 m 560 1267 l 838 1267 l 838 1088 l 560 1088 m 378 372 l 13 1013 l 346 1013 l 488 721 l 519 656 l 531 656 l 563 721 l 704 1013 l 1036 1013 l 672 372 l 672 0 l 378 0 "},"Ỳ":{"ha":1051,"x_min":0,"x_max":0,"o":"m 285 1267 l 557 1267 l 631 1088 l 421 1088 m 378 372 l 13 1013 l 346 1013 l 488 721 l 519 656 l 531 656 l 563 721 l 704 1013 l 1036 1013 l 672 372 l 672 0 l 378 0 "},"Z":{"ha":960,"x_min":0,"x_max":0,"o":"m 28 228 l 517 761 l 51 761 l 51 1013 l 919 1013 l 919 788 l 426 250 l 929 250 l 929 0 l 28 0 "},"Ź":{"ha":960,"x_min":0,"x_max":0,"o":"m 404 1267 l 676 1267 l 540 1088 l 332 1088 m 28 228 l 517 761 l 51 761 l 51 1013 l 919 1013 l 919 788 l 426 250 l 929 250 l 929 0 l 28 0 "},"Ž":{"ha":960,"x_min":0,"x_max":0,"o":"m 142 1267 l 371 1267 l 436 1190 l 501 1267 l 731 1267 l 571 1088 l 303 1088 m 28 228 l 517 761 l 51 761 l 51 1013 l 919 1013 l 919 788 l 426 250 l 929 250 l 929 0 l 28 0 "},"Ż":{"ha":960,"x_min":0,"x_max":0,"o":"m 296 1267 l 574 1267 l 574 1088 l 296 1088 m 28 228 l 517 761 l 51 761 l 51 1013 l 919 1013 l 919 788 l 426 250 l 929 250 l 929 0 l 28 0 "},"a":{"ha":894,"x_min":0,"x_max":0,"o":"m 321 -14 b 35 358 114 -14 35 136 l 35 400 b 321 772 35 669 149 772 b 532 663 413 772 493 733 l 543 663 l 557 758 l 819 758 l 819 0 l 543 0 l 543 96 l 532 96 b 321 -14 493 25 413 -14 m 436 210 b 542 318 499 210 542 246 l 542 440 b 436 549 542 511 499 549 b 331 439 368 549 331 507 l 331 318 b 436 210 331 251 368 210 "},"á":{"ha":894,"x_min":0,"x_max":0,"o":"m 413 1013 l 685 1013 l 549 833 l 340 833 m 321 -14 b 35 358 114 -14 35 136 l 35 400 b 321 772 35 669 149 772 b 532 663 413 772 493 733 l 543 663 l 557 758 l 819 758 l 819 0 l 543 0 l 543 96 l 532 96 b 321 -14 493 25 413 -14 m 436 210 b 542 318 499 210 542 246 l 542 440 b 436 549 542 511 499 549 b 331 439 368 549 331 507 l 331 318 b 436 210 331 251 368 210 "},"ă":{"ha":894,"x_min":0,"x_max":0,"o":"m 443 818 b 190 1046 293 818 190 910 l 364 1046 b 443 968 364 993 397 968 b 522 1046 488 968 522 993 l 694 1046 b 443 818 694 910 593 818 m 321 -14 b 35 358 114 -14 35 136 l 35 400 b 321 772 35 669 149 772 b 532 663 413 772 493 733 l 543 663 l 557 758 l 819 758 l 819 0 l 543 0 l 543 96 l 532 96 b 321 -14 493 25 413 -14 m 436 210 b 542 318 499 210 542 246 l 542 440 b 436 549 542 511 499 549 b 331 439 368 549 331 507 l 331 318 b 436 210 331 251 368 210 "},"â":{"ha":894,"x_min":0,"x_max":0,"o":"m 311 1013 l 579 1013 l 739 833 l 510 833 l 444 910 l 379 833 l 151 833 m 321 -14 b 35 358 114 -14 35 136 l 35 400 b 321 772 35 669 149 772 b 532 663 413 772 493 733 l 543 663 l 557 758 l 819 758 l 819 0 l 543 0 l 543 96 l 532 96 b 321 -14 493 25 413 -14 m 436 210 b 542 318 499 210 542 246 l 542 440 b 436 549 542 511 499 549 b 331 439 368 549 331 507 l 331 318 b 436 210 331 251 368 210 "},"ä":{"ha":894,"x_min":0,"x_max":0,"o":"m 132 1013 l 410 1013 l 410 833 l 132 833 m 478 1013 l 756 1013 l 756 833 l 478 833 m 321 -14 b 35 358 114 -14 35 136 l 35 400 b 321 772 35 669 149 772 b 532 663 413 772 493 733 l 543 663 l 557 758 l 819 758 l 819 0 l 543 0 l 543 96 l 532 96 b 321 -14 493 25 413 -14 m 436 210 b 542 318 499 210 542 246 l 542 440 b 436 549 542 511 499 549 b 331 439 368 549 331 507 l 331 318 b 436 210 331 251 368 210 "},"à":{"ha":894,"x_min":0,"x_max":0,"o":"m 203 1013 l 475 1013 l 549 833 l 339 833 m 321 -14 b 35 358 114 -14 35 136 l 35 400 b 321 772 35 669 149 772 b 532 663 413 772 493 733 l 543 663 l 557 758 l 819 758 l 819 0 l 543 0 l 543 96 l 532 96 b 321 -14 493 25 413 -14 m 436 210 b 542 318 499 210 542 246 l 542 440 b 436 549 542 511 499 549 b 331 439 368 549 331 507 l 331 318 b 436 210 331 251 368 210 "},"ā":{"ha":894,"x_min":0,"x_max":0,"o":"m 188 1008 l 700 1008 l 700 829 l 188 829 m 321 -14 b 35 358 114 -14 35 136 l 35 400 b 321 772 35 669 149 772 b 532 663 413 772 493 733 l 543 663 l 557 758 l 819 758 l 819 0 l 543 0 l 543 96 l 532 96 b 321 -14 493 25 413 -14 m 436 210 b 542 318 499 210 542 246 l 542 440 b 436 549 542 511 499 549 b 331 439 368 549 331 507 l 331 318 b 436 210 331 251 368 210 "},"ą":{"ha":894,"x_min":0,"x_max":0,"o":"m 321 -14 b 35 358 114 -14 35 136 l 35 400 b 321 772 35 669 149 772 b 532 663 413 772 493 733 l 543 663 l 557 758 l 819 758 l 819 0 l 669 0 l 661 -31 b 728 -106 647 -83 661 -106 l 819 -106 l 785 -278 l 653 -278 b 471 -143 536 -278 471 -229 b 543 8 471 -85 503 -37 l 543 96 l 532 96 b 321 -14 493 25 413 -14 m 436 210 b 542 318 499 210 542 246 l 542 440 b 436 549 542 511 499 549 b 331 439 368 549 331 507 l 331 318 b 436 210 331 251 368 210 "},"å":{"ha":894,"x_min":0,"x_max":0,"o":"m 444 819 b 263 989 335 819 263 889 b 444 1158 263 1089 335 1158 b 626 989 556 1158 626 1089 b 444 819 626 889 556 819 m 444 938 b 494 989 474 938 494 958 b 444 1040 494 1019 474 1040 b 396 989 415 1040 396 1019 b 444 938 396 958 415 938 m 321 -14 b 35 358 114 -14 35 136 l 35 400 b 321 772 35 669 149 772 b 532 663 413 772 493 733 l 543 663 l 557 758 l 819 758 l 819 0 l 543 0 l 543 96 l 532 96 b 321 -14 493 25 413 -14 m 436 210 b 542 318 499 210 542 246 l 542 440 b 436 549 542 511 499 549 b 331 439 368 549 331 507 l 331 318 b 436 210 331 251 368 210 "},"ã":{"ha":894,"x_min":0,"x_max":0,"o":"m 532 825 b 361 882 457 826 428 881 b 271 828 319 882 294 853 l 164 900 b 360 1068 213 1033 299 1069 b 533 1014 443 1065 464 1015 b 618 1071 592 1014 610 1056 l 729 1003 b 532 825 686 875 606 824 m 321 -14 b 35 358 114 -14 35 136 l 35 400 b 321 772 35 669 149 772 b 532 663 413 772 493 733 l 543 663 l 557 758 l 819 758 l 819 0 l 543 0 l 543 96 l 532 96 b 321 -14 493 25 413 -14 m 436 210 b 542 318 499 210 542 246 l 542 440 b 436 549 542 511 499 549 b 331 439 368 549 331 507 l 331 318 b 436 210 331 251 368 210 "},"æ":{"ha":1274,"x_min":0,"x_max":0,"o":"m 274 -14 b 35 192 131 -14 35 64 l 35 197 b 338 436 35 356 140 418 l 496 451 l 496 472 b 404 556 496 532 460 556 b 307 492 342 556 310 529 l 60 492 b 429 772 67 682 213 772 b 657 721 522 772 597 754 b 869 772 715 756 788 772 b 1239 418 1106 772 1239 646 l 1239 310 l 772 310 l 772 279 b 874 194 772 229 814 194 b 968 247 925 194 960 215 l 1229 247 b 882 -14 1221 92 1082 -14 b 557 122 722 -14 618 36 l 536 122 b 274 -14 496 29 399 -14 m 772 475 l 968 475 l 968 482 b 868 569 968 540 926 569 b 772 482 814 569 772 542 m 396 182 b 496 225 440 182 479 199 l 496 311 l 381 300 b 313 249 331 294 313 271 l 313 233 b 396 182 313 197 346 182 "},"b":{"ha":896,"x_min":0,"x_max":0,"o":"m 575 -14 b 364 96 483 -14 401 25 l 353 96 l 338 0 l 75 0 l 75 1013 l 353 1013 l 353 661 l 364 661 b 575 772 401 733 483 772 b 861 399 782 772 861 622 l 861 358 b 575 -14 861 89 747 -14 m 460 210 b 565 318 528 210 565 251 l 565 439 b 460 549 565 507 528 549 b 354 440 396 549 354 511 l 354 318 b 460 210 354 246 396 210 "},"c":{"ha":808,"x_min":0,"x_max":0,"o":"m 413 -14 b 35 372 156 -14 35 143 l 35 376 b 413 772 35 643 183 772 b 778 465 642 772 772 650 l 506 465 b 413 549 503 522 467 549 b 314 440 350 549 314 507 l 314 313 b 413 210 314 249 346 210 b 506 292 471 210 501 243 l 779 292 b 413 -14 778 108 629 -14 "},"ć":{"ha":808,"x_min":0,"x_max":0,"o":"m 381 1013 l 653 1013 l 517 833 l 308 833 m 413 -14 b 35 372 156 -14 35 143 l 35 376 b 413 772 35 643 183 772 b 778 465 642 772 772 650 l 506 465 b 413 549 503 522 467 549 b 314 440 350 549 314 507 l 314 313 b 413 210 314 249 346 210 b 506 292 471 210 501 243 l 779 292 b 413 -14 778 108 629 -14 "},"č":{"ha":808,"x_min":0,"x_max":0,"o":"m 118 1013 l 347 1013 l 413 936 l 478 1013 l 707 1013 l 547 833 l 279 833 m 413 -14 b 35 372 156 -14 35 143 l 35 376 b 413 772 35 643 183 772 b 778 465 642 772 772 650 l 506 465 b 413 549 503 522 467 549 b 314 440 350 549 314 507 l 314 313 b 413 210 314 249 346 210 b 506 292 471 210 501 243 l 779 292 b 413 -14 778 108 629 -14 "},"ç":{"ha":808,"x_min":0,"x_max":0,"o":"m 394 -368 b 158 -178 263 -368 156 -297 l 328 -178 b 382 -232 328 -203 342 -232 b 438 -179 419 -232 438 -210 b 367 -128 438 -142 411 -128 l 338 -128 l 338 -8 b 35 372 132 19 35 167 l 35 376 b 413 772 35 643 183 772 b 778 465 642 772 772 650 l 506 465 b 413 549 503 522 467 549 b 314 440 350 549 314 507 l 314 313 b 413 210 314 249 346 210 b 506 292 471 210 501 243 l 779 292 b 485 -10 778 129 661 15 l 485 -47 b 624 -192 574 -56 624 -112 b 394 -368 624 -301 525 -368 "},"ċ":{"ha":808,"x_min":0,"x_max":0,"o":"m 272 1013 l 550 1013 l 550 833 l 272 833 m 413 -14 b 35 372 156 -14 35 143 l 35 376 b 413 772 35 643 183 772 b 778 465 642 772 772 650 l 506 465 b 413 549 503 522 467 549 b 314 440 350 549 314 507 l 314 313 b 413 210 314 249 346 210 b 506 292 471 210 501 243 l 779 292 b 413 -14 778 108 629 -14 "},"d":{"ha":896,"x_min":0,"x_max":0,"o":"m 321 -14 b 35 358 114 -14 35 136 l 35 399 b 321 772 35 669 149 772 b 532 661 413 772 493 733 l 543 661 l 543 1013 l 821 1013 l 821 0 l 557 0 l 543 96 l 532 96 b 321 -14 493 25 413 -14 m 436 210 b 542 318 499 210 542 246 l 542 440 b 436 549 542 511 499 549 b 331 439 368 549 331 507 l 331 318 b 436 210 331 251 368 210 "},"ď":{"ha":896,"x_min":0,"x_max":0,"o":"m 321 -14 b 35 358 114 -14 35 136 l 35 399 b 321 772 35 669 149 772 b 532 661 413 772 493 733 l 543 661 l 543 1013 l 821 1013 l 821 0 l 557 0 l 543 96 l 532 96 b 321 -14 493 25 413 -14 m 888 661 l 924 661 b 1025 746 997 661 1025 692 l 1025 776 l 908 776 l 908 1013 l 1168 1013 l 1168 736 b 958 528 1168 578 1083 528 l 888 528 m 436 210 b 542 318 499 210 542 246 l 542 440 b 436 549 542 511 499 549 b 331 439 368 549 331 507 l 331 318 b 436 210 331 251 368 210 "},"đ":{"ha":896,"x_min":0,"x_max":0,"o":"m 321 -14 b 35 358 114 -14 35 136 l 35 399 b 321 772 35 669 149 772 b 532 661 413 772 493 733 l 543 661 l 543 797 l 421 797 l 421 963 l 543 963 l 543 1013 l 821 1013 l 821 963 l 888 963 l 888 797 l 821 797 l 821 0 l 557 0 l 543 96 l 532 96 b 321 -14 493 25 413 -14 m 436 210 b 542 318 499 210 542 246 l 542 440 b 436 549 542 511 499 549 b 331 439 368 549 331 507 l 331 318 b 436 210 331 251 368 210 "},"e":{"ha":818,"x_min":0,"x_max":0,"o":"m 426 -14 b 35 375 165 -14 35 142 l 35 392 b 403 772 35 635 185 772 b 783 418 646 772 783 631 l 783 310 l 315 310 l 315 279 b 417 194 315 229 358 194 b 511 247 469 194 504 215 l 774 247 b 426 -14 765 92 626 -14 m 315 475 l 511 475 l 511 482 b 413 569 511 540 471 569 b 315 482 358 569 315 542 "},"é":{"ha":818,"x_min":0,"x_max":0,"o":"m 376 1013 l 649 1013 l 513 833 l 304 833 m 426 -14 b 35 375 165 -14 35 142 l 35 392 b 403 772 35 635 185 772 b 783 418 646 772 783 631 l 783 310 l 315 310 l 315 279 b 417 194 315 229 358 194 b 511 247 469 194 504 215 l 774 247 b 426 -14 765 92 626 -14 m 315 475 l 511 475 l 511 482 b 413 569 511 540 471 569 b 315 482 358 569 315 542 "},"ě":{"ha":818,"x_min":0,"x_max":0,"o":"m 114 1013 l 343 1013 l 408 936 l 474 1013 l 703 1013 l 543 833 l 275 833 m 426 -14 b 35 375 165 -14 35 142 l 35 392 b 403 772 35 635 185 772 b 783 418 646 772 783 631 l 783 310 l 315 310 l 315 279 b 417 194 315 229 358 194 b 511 247 469 194 504 215 l 774 247 b 426 -14 765 92 626 -14 m 315 475 l 511 475 l 511 482 b 413 569 511 540 471 569 b 315 482 358 569 315 542 "},"ê":{"ha":818,"x_min":0,"x_max":0,"o":"m 275 1013 l 543 1013 l 703 833 l 474 833 l 408 910 l 343 833 l 115 833 m 426 -14 b 35 375 165 -14 35 142 l 35 392 b 403 772 35 635 185 772 b 783 418 646 772 783 631 l 783 310 l 315 310 l 315 279 b 417 194 315 229 358 194 b 511 247 469 194 504 215 l 774 247 b 426 -14 765 92 626 -14 m 315 475 l 511 475 l 511 482 b 413 569 511 540 471 569 b 315 482 358 569 315 542 "},"ë":{"ha":818,"x_min":0,"x_max":0,"o":"m 96 1013 l 374 1013 l 374 833 l 96 833 m 442 1013 l 719 1013 l 719 833 l 442 833 m 426 -14 b 35 375 165 -14 35 142 l 35 392 b 403 772 35 635 185 772 b 783 418 646 772 783 631 l 783 310 l 315 310 l 315 279 b 417 194 315 229 358 194 b 511 247 469 194 504 215 l 774 247 b 426 -14 765 92 626 -14 m 315 475 l 511 475 l 511 482 b 413 569 511 540 471 569 b 315 482 358 569 315 542 "},"ė":{"ha":818,"x_min":0,"x_max":0,"o":"m 268 1013 l 546 1013 l 546 833 l 268 833 m 426 -14 b 35 375 165 -14 35 142 l 35 392 b 403 772 35 635 185 772 b 783 418 646 772 783 631 l 783 310 l 315 310 l 315 279 b 417 194 315 229 358 194 b 511 247 469 194 504 215 l 774 247 b 426 -14 765 92 626 -14 m 315 475 l 511 475 l 511 482 b 413 569 511 540 471 569 b 315 482 358 569 315 542 "},"è":{"ha":818,"x_min":0,"x_max":0,"o":"m 167 1013 l 439 1013 l 513 833 l 303 833 m 426 -14 b 35 375 165 -14 35 142 l 35 392 b 403 772 35 635 185 772 b 783 418 646 772 783 631 l 783 310 l 315 310 l 315 279 b 417 194 315 229 358 194 b 511 247 469 194 504 215 l 774 247 b 426 -14 765 92 626 -14 m 315 475 l 511 475 l 511 482 b 413 569 511 540 471 569 b 315 482 358 569 315 542 "},"ē":{"ha":818,"x_min":0,"x_max":0,"o":"m 151 1008 l 664 1008 l 664 829 l 151 829 m 426 -14 b 35 375 165 -14 35 142 l 35 392 b 403 772 35 635 185 772 b 783 418 646 772 783 631 l 783 310 l 315 310 l 315 279 b 417 194 315 229 358 194 b 511 247 469 194 504 215 l 774 247 b 426 -14 765 92 626 -14 m 315 475 l 511 475 l 511 482 b 413 569 511 540 471 569 b 315 482 358 569 315 542 "},"ę":{"ha":818,"x_min":0,"x_max":0,"o":"m 485 -278 b 303 -143 368 -278 303 -229 b 360 -10 303 -93 328 -50 b 35 375 143 14 35 163 l 35 392 b 403 772 35 635 185 772 b 783 418 646 772 783 631 l 783 310 l 315 310 l 315 279 b 417 194 315 229 358 194 b 511 247 469 194 504 215 l 774 247 b 499 -8 767 111 660 14 l 493 -31 b 560 -106 479 -83 493 -106 l 651 -106 l 617 -278 l 485 -278 m 315 475 l 511 475 l 511 482 b 413 569 511 540 471 569 b 315 482 358 569 315 542 "},"f":{"ha":640,"x_min":0,"x_max":0,"o":"m 429 536 l 429 0 l 151 0 l 151 536 l 10 536 l 10 758 l 151 758 l 151 838 b 354 1013 151 950 233 1013 l 600 1013 l 600 835 l 429 835 l 429 758 l 600 758 l 600 536 "},"g":{"ha":889,"x_min":0,"x_max":0,"o":"m 399 -246 b 53 -11 188 -246 63 -151 l 321 -11 b 422 -56 331 -42 369 -56 b 543 51 510 -56 543 -17 l 543 168 l 532 168 b 319 51 494 89 414 51 b 35 406 128 51 35 188 l 35 411 b 319 772 35 647 138 772 b 532 667 439 772 497 729 l 543 667 l 558 758 l 821 758 l 821 85 b 399 -246 821 -153 669 -246 m 436 269 b 542 372 504 269 542 311 l 542 450 b 436 553 542 517 500 553 b 332 450 368 553 332 511 l 332 374 b 436 269 332 307 374 269 "},"ğ":{"ha":889,"x_min":0,"x_max":0,"o":"m 444 818 b 192 1046 294 818 192 910 l 365 1046 b 444 968 365 993 399 968 b 524 1046 489 968 524 993 l 696 1046 b 444 818 696 910 594 818 m 399 -246 b 53 -11 188 -246 63 -151 l 321 -11 b 422 -56 331 -42 369 -56 b 543 51 510 -56 543 -17 l 543 168 l 532 168 b 319 51 494 89 414 51 b 35 406 128 51 35 188 l 35 411 b 319 772 35 647 138 772 b 532 667 439 772 497 729 l 543 667 l 558 758 l 821 758 l 821 85 b 399 -246 821 -153 669 -246 m 436 269 b 542 372 504 269 542 311 l 542 450 b 436 553 542 517 500 553 b 332 450 368 553 332 511 l 332 374 b 436 269 332 307 374 269 "},"ģ":{"ha":889,"x_min":0,"x_max":0,"o":"m 340 1047 b 521 1217 340 1156 406 1217 l 569 1217 l 569 1106 l 540 1106 b 463 1039 483 1106 463 1081 l 463 1024 l 550 1024 l 550 836 l 340 836 m 399 -246 b 53 -11 188 -246 63 -151 l 321 -11 b 422 -56 331 -42 369 -56 b 543 51 510 -56 543 -17 l 543 168 l 532 168 b 319 51 494 89 414 51 b 35 406 128 51 35 188 l 35 411 b 319 772 35 647 138 772 b 532 667 439 772 497 729 l 543 667 l 558 758 l 821 758 l 821 85 b 399 -246 821 -153 669 -246 m 436 269 b 542 372 504 269 542 311 l 542 450 b 436 553 542 517 500 553 b 332 450 368 553 332 511 l 332 374 b 436 269 332 307 374 269 "},"ġ":{"ha":889,"x_min":0,"x_max":0,"o":"m 306 1013 l 583 1013 l 583 833 l 306 833 m 399 -246 b 53 -11 188 -246 63 -151 l 321 -11 b 422 -56 331 -42 369 -56 b 543 51 510 -56 543 -17 l 543 168 l 532 168 b 319 51 494 89 414 51 b 35 406 128 51 35 188 l 35 411 b 319 772 35 647 138 772 b 532 667 439 772 497 729 l 543 667 l 558 758 l 821 758 l 821 85 b 399 -246 821 -153 669 -246 m 436 269 b 542 372 504 269 542 311 l 542 450 b 436 553 542 517 500 553 b 332 450 368 553 332 511 l 332 374 b 436 269 332 307 374 269 "},"h":{"ha":907,"x_min":0,"x_max":0,"o":"m 75 1013 l 353 1013 l 353 651 l 367 651 b 575 772 399 722 474 772 b 839 461 733 772 839 685 l 839 0 l 561 0 l 561 425 b 460 549 561 521 522 549 b 353 417 383 549 353 497 l 353 0 l 75 0 "},"ħ":{"ha":907,"x_min":0,"x_max":0,"o":"m 75 797 l 4 797 l 4 963 l 75 963 l 75 1013 l 353 1013 l 353 963 l 471 963 l 471 797 l 353 797 l 353 651 l 367 651 b 575 772 399 722 474 772 b 839 461 733 772 839 685 l 839 0 l 561 0 l 561 425 b 460 549 561 521 522 549 b 353 417 383 549 353 497 l 353 0 l 75 0 "},"i":{"ha":428,"x_min":0,"x_max":0,"o":"m 75 1013 l 353 1013 l 353 833 l 75 833 m 75 758 l 353 758 l 353 0 l 75 0 "},"ı":{"ha":428,"x_min":0,"x_max":0,"o":"m 75 758 l 353 758 l 353 0 l 75 0 "},"í":{"ha":428,"x_min":0,"x_max":0,"o":"m 183 1013 l 456 1013 l 319 833 l 111 833 m 75 758 l 353 758 l 353 0 l 75 0 "},"î":{"ha":428,"x_min":0,"x_max":0,"o":"m 82 1013 l 350 1013 l 510 833 l 281 833 l 215 910 l 150 833 l -78 833 m 75 758 l 353 758 l 353 0 l 75 0 "},"ï":{"ha":428,"x_min":0,"x_max":0,"o":"m -97 1013 l 181 1013 l 181 833 l -97 833 m 249 1013 l 526 1013 l 526 833 l 249 833 m 75 758 l 353 758 l 353 0 l 75 0 "},"ì":{"ha":428,"x_min":0,"x_max":0,"o":"m -26 1013 l 246 1013 l 319 833 l 110 833 m 75 758 l 353 758 l 353 0 l 75 0 "},"ī":{"ha":428,"x_min":0,"x_max":0,"o":"m -42 1008 l 471 1008 l 471 829 l -42 829 m 75 758 l 353 758 l 353 0 l 75 0 "},"į":{"ha":428,"x_min":0,"x_max":0,"o":"m 75 1013 l 353 1013 l 353 833 l 75 833 m 75 758 l 353 758 l 353 0 l 282 0 l 274 -31 b 340 -106 260 -83 274 -106 l 432 -106 l 397 -278 l 265 -278 b 83 -143 149 -278 83 -229 b 149 0 83 -89 113 -43 l 75 0 "},"j":{"ha":426,"x_min":0,"x_max":0,"o":"m 74 1013 l 351 1013 l 351 833 l 74 833 m -53 -31 l 74 -31 l 74 758 l 351 758 l 351 -31 b 151 -232 351 -160 271 -232 l -53 -232 "},"ȷ":{"ha":426,"x_min":0,"x_max":0,"o":"m -53 -17 l 75 -17 l 75 758 l 351 758 l 351 -3 b 124 -232 351 -158 260 -232 l -53 -232 "},"k":{"ha":938,"x_min":0,"x_max":0,"o":"m 75 1013 l 353 1013 l 353 496 l 574 758 l 906 758 l 625 465 l 924 0 l 606 0 l 431 281 l 353 201 l 353 0 l 75 0 "},"ķ":{"ha":938,"x_min":0,"x_max":0,"o":"m 75 1013 l 353 1013 l 353 496 l 574 758 l 906 758 l 625 465 l 924 0 l 606 0 l 431 281 l 353 201 l 353 0 l 75 0 m 343 -347 l 381 -349 b 472 -272 446 -349 472 -321 l 472 -256 l 347 -256 l 347 -75 l 596 -75 l 596 -294 b 408 -482 596 -429 521 -482 l 343 -482 "},"l":{"ha":428,"x_min":0,"x_max":0,"o":"m 75 1013 l 353 1013 l 353 0 l 75 0 "},"ĺ":{"ha":428,"x_min":0,"x_max":0,"o":"m 183 1267 l 456 1267 l 319 1088 l 111 1088 m 75 1013 l 353 1013 l 353 0 l 75 0 "},"ľ":{"ha":428,"x_min":0,"x_max":0,"o":"m 422 665 l 458 665 b 560 750 532 665 560 696 l 560 781 l 443 781 l 443 1017 l 703 1017 l 703 740 b 493 532 703 582 618 532 l 422 532 m 75 1013 l 353 1013 l 353 0 l 75 0 "},"ļ":{"ha":428,"x_min":0,"x_max":0,"o":"m 75 1013 l 353 1013 l 353 0 l 75 0 m 86 -347 l 124 -349 b 215 -272 189 -349 215 -321 l 215 -256 l 90 -256 l 90 -75 l 339 -75 l 339 -294 b 151 -482 339 -429 264 -482 l 86 -482 "},"ł":{"ha":428,"x_min":0,"x_max":0,"o":"m 75 382 l -10 364 l -10 567 l 75 585 l 75 1013 l 353 1013 l 353 646 l 438 664 l 438 463 l 353 444 l 353 0 l 75 0 "},"m":{"ha":1368,"x_min":0,"x_max":0,"o":"m 75 758 l 335 758 l 353 658 l 367 658 b 574 771 397 731 478 771 b 801 631 688 771 774 715 l 811 631 b 1039 771 843 721 932 771 b 1300 481 1194 771 1300 689 l 1300 0 l 1022 0 l 1022 431 b 926 547 1022 521 985 547 b 826 424 856 547 826 499 l 826 0 l 549 0 l 549 431 b 453 547 549 521 511 547 b 353 424 382 547 353 499 l 353 0 l 75 0 "},"n":{"ha":907,"x_min":0,"x_max":0,"o":"m 75 758 l 333 758 l 353 651 l 367 651 b 575 772 399 722 474 772 b 839 461 733 772 839 685 l 839 0 l 561 0 l 561 425 b 460 549 561 521 522 549 b 353 417 383 549 353 497 l 353 0 l 75 0 "},"ń":{"ha":907,"x_min":0,"x_max":0,"o":"m 425 1013 l 697 1013 l 561 833 l 353 833 m 75 758 l 333 758 l 353 651 l 367 651 b 575 772 399 722 474 772 b 839 461 733 772 839 685 l 839 0 l 561 0 l 561 425 b 460 549 561 521 522 549 b 353 417 383 549 353 497 l 353 0 l 75 0 "},"ň":{"ha":907,"x_min":0,"x_max":0,"o":"m 163 1013 l 392 1013 l 457 936 l 522 1013 l 751 1013 l 592 833 l 324 833 m 75 758 l 333 758 l 353 651 l 367 651 b 575 772 399 722 474 772 b 839 461 733 772 839 685 l 839 0 l 561 0 l 561 425 b 460 549 561 521 522 549 b 353 417 383 549 353 497 l 353 0 l 75 0 "},"ņ":{"ha":907,"x_min":0,"x_max":0,"o":"m 75 758 l 333 758 l 353 651 l 367 651 b 575 772 399 722 474 772 b 839 461 733 772 839 685 l 839 0 l 561 0 l 561 425 b 460 549 561 521 522 549 b 353 417 383 549 353 497 l 353 0 l 75 0 m 328 -347 l 365 -349 b 457 -272 431 -349 457 -321 l 457 -256 l 332 -256 l 332 -75 l 581 -75 l 581 -294 b 393 -482 581 -429 506 -482 l 328 -482 "},"ŋ":{"ha":907,"x_min":0,"x_max":0,"o":"m 433 -17 l 561 -17 l 561 425 b 460 549 561 521 522 549 b 353 417 383 549 353 497 l 353 0 l 75 0 l 75 758 l 333 758 l 353 651 l 367 651 b 589 772 400 722 481 772 b 839 461 758 772 839 647 l 839 -3 b 610 -232 839 -158 747 -232 l 433 -232 "},"ñ":{"ha":907,"x_min":0,"x_max":0,"o":"m 544 825 b 374 882 469 826 440 881 b 283 828 332 882 307 853 l 176 900 b 372 1068 225 1033 311 1069 b 546 1014 456 1065 476 1015 b 631 1071 604 1014 622 1056 l 742 1003 b 544 825 699 875 618 824 m 75 758 l 333 758 l 353 651 l 367 651 b 575 772 399 722 474 772 b 839 461 733 772 839 685 l 839 0 l 561 0 l 561 425 b 460 549 561 521 522 549 b 353 417 383 549 353 497 l 353 0 l 75 0 "},"o":{"ha":829,"x_min":0,"x_max":0,"o":"m 414 -14 b 35 372 157 -14 36 142 l 35 376 b 414 772 35 644 185 772 b 794 376 643 772 794 644 l 794 372 b 414 -14 793 142 671 -14 m 414 210 b 513 313 482 210 513 247 l 513 440 b 414 549 513 508 476 549 b 315 440 351 549 315 508 l 315 313 b 414 210 315 247 347 210 "},"ó":{"ha":829,"x_min":0,"x_max":0,"o":"m 382 1013 l 654 1013 l 518 833 l 310 833 m 414 -14 b 35 372 157 -14 36 142 l 35 376 b 414 772 35 644 185 772 b 794 376 643 772 794 644 l 794 372 b 414 -14 793 142 671 -14 m 414 210 b 513 313 482 210 513 247 l 513 440 b 414 549 513 508 476 549 b 315 440 351 549 315 508 l 315 313 b 414 210 315 247 347 210 "},"ô":{"ha":829,"x_min":0,"x_max":0,"o":"m 281 1013 l 549 1013 l 708 833 l 479 833 l 414 910 l 349 833 l 121 833 m 414 -14 b 35 372 157 -14 36 142 l 35 376 b 414 772 35 644 185 772 b 794 376 643 772 794 644 l 794 372 b 414 -14 793 142 671 -14 m 414 210 b 513 313 482 210 513 247 l 513 440 b 414 549 513 508 476 549 b 315 440 351 549 315 508 l 315 313 b 414 210 315 247 347 210 "},"ö":{"ha":829,"x_min":0,"x_max":0,"o":"m 101 1013 l 379 1013 l 379 833 l 101 833 m 447 1013 l 725 1013 l 725 833 l 447 833 m 414 -14 b 35 372 157 -14 36 142 l 35 376 b 414 772 35 644 185 772 b 794 376 643 772 794 644 l 794 372 b 414 -14 793 142 671 -14 m 414 210 b 513 313 482 210 513 247 l 513 440 b 414 549 513 508 476 549 b 315 440 351 549 315 508 l 315 313 b 414 210 315 247 347 210 "},"ò":{"ha":829,"x_min":0,"x_max":0,"o":"m 172 1013 l 444 1013 l 518 833 l 308 833 m 414 -14 b 35 372 157 -14 36 142 l 35 376 b 414 772 35 644 185 772 b 794 376 643 772 794 644 l 794 372 b 414 -14 793 142 671 -14 m 414 210 b 513 313 482 210 513 247 l 513 440 b 414 549 513 508 476 549 b 315 440 351 549 315 508 l 315 313 b 414 210 315 247 347 210 "},"ő":{"ha":829,"x_min":0,"x_max":0,"o":"m 242 1013 l 500 1013 l 365 833 l 165 833 m 596 1013 l 871 1013 l 683 833 l 463 833 m 414 -14 b 35 372 157 -14 36 142 l 35 376 b 414 772 35 644 185 772 b 794 376 643 772 794 644 l 794 372 b 414 -14 793 142 671 -14 m 414 210 b 513 313 482 210 513 247 l 513 440 b 414 549 513 508 476 549 b 315 440 351 549 315 508 l 315 313 b 414 210 315 247 347 210 "},"ō":{"ha":829,"x_min":0,"x_max":0,"o":"m 157 1008 l 669 1008 l 669 829 l 157 829 m 414 -14 b 35 372 157 -14 36 142 l 35 376 b 414 772 35 644 185 772 b 794 376 643 772 794 644 l 794 372 b 414 -14 793 142 671 -14 m 414 210 b 513 313 482 210 513 247 l 513 440 b 414 549 513 508 476 549 b 315 440 351 549 315 508 l 315 313 b 414 210 315 247 347 210 "},"ø":{"ha":829,"x_min":0,"x_max":0,"o":"m 133 89 b 35 372 67 156 36 254 l 35 376 b 414 772 35 644 185 772 b 599 736 483 772 546 761 l 643 799 l 786 799 l 694 671 b 794 376 758 606 794 508 l 794 372 b 414 -14 793 142 671 -14 b 226 22 340 -14 278 -1 l 182 -40 l 40 -40 m 315 343 l 457 540 b 414 549 444 546 431 549 b 315 440 351 549 315 508 m 414 210 b 513 313 482 210 513 247 l 513 418 l 368 218 b 414 210 381 213 396 210 "},"õ":{"ha":829,"x_min":0,"x_max":0,"o":"m 501 825 b 331 882 426 826 397 881 b 240 828 289 882 264 853 l 133 900 b 329 1068 182 1033 268 1069 b 503 1014 413 1065 433 1015 b 588 1071 561 1014 579 1056 l 699 1003 b 501 825 656 875 575 824 m 414 -14 b 35 372 157 -14 36 142 l 35 376 b 414 772 35 644 185 772 b 794 376 643 772 794 644 l 794 372 b 414 -14 793 142 671 -14 m 414 210 b 513 313 482 210 513 247 l 513 440 b 414 549 513 508 476 549 b 315 440 351 549 315 508 l 315 313 b 414 210 315 247 347 210 "},"œ":{"ha":1299,"x_min":0,"x_max":0,"o":"m 414 -14 b 35 372 157 -14 36 142 l 35 376 b 414 772 35 644 185 772 b 654 704 510 772 592 750 b 883 772 715 749 793 772 b 1264 418 1126 772 1264 631 l 1264 310 l 796 310 l 796 279 b 897 194 796 229 839 194 b 992 247 950 194 985 215 l 1254 247 b 907 -14 1246 92 1107 -14 b 657 56 803 -14 719 11 b 414 -14 597 11 517 -14 m 796 475 l 992 475 l 992 482 b 893 569 992 540 951 569 b 796 482 839 569 796 542 m 414 210 b 513 313 482 210 513 247 l 513 440 b 414 549 513 508 476 549 b 315 440 351 549 315 508 l 315 313 b 414 210 315 247 347 210 "},"p":{"ha":896,"x_min":0,"x_max":0,"o":"m 75 758 l 338 758 l 353 663 l 364 663 b 575 772 401 733 483 772 b 861 400 782 772 861 622 l 861 358 b 575 -14 861 89 747 -14 b 364 96 483 -14 401 25 l 353 96 l 353 -232 l 75 -232 m 460 210 b 565 318 528 210 565 251 l 565 439 b 460 549 565 507 528 549 b 354 440 396 549 354 511 l 354 318 b 460 210 354 246 396 210 "},"þ":{"ha":896,"x_min":0,"x_max":0,"o":"m 75 1013 l 353 1013 l 353 663 l 364 663 b 575 772 401 733 483 772 b 861 400 782 772 861 622 l 861 358 b 575 -14 861 89 747 -14 b 364 96 483 -14 401 25 l 353 96 l 353 -232 l 75 -232 m 460 210 b 565 318 528 210 565 251 l 565 439 b 460 549 565 507 528 549 b 354 440 396 549 354 511 l 354 318 b 460 210 354 246 396 210 "},"q":{"ha":896,"x_min":0,"x_max":0,"o":"m 543 96 l 532 96 b 321 -14 493 25 413 -14 b 35 358 114 -14 35 136 l 35 400 b 321 772 35 669 149 772 b 532 663 413 772 493 733 l 543 663 l 557 758 l 821 758 l 821 -232 l 543 -232 m 436 210 b 542 318 499 210 542 246 l 542 440 b 436 549 542 511 499 549 b 331 439 368 549 331 507 l 331 318 b 436 210 331 251 368 210 "},"r":{"ha":619,"x_min":0,"x_max":0,"o":"m 75 557 b 275 758 75 678 156 758 l 583 758 l 583 536 l 353 536 l 353 0 l 75 0 "},"ŕ":{"ha":619,"x_min":0,"x_max":0,"o":"m 333 1013 l 606 1013 l 469 833 l 261 833 m 75 557 b 275 758 75 678 156 758 l 583 758 l 583 536 l 353 536 l 353 0 l 75 0 "},"ř":{"ha":619,"x_min":0,"x_max":0,"o":"m 71 1013 l 300 1013 l 365 936 l 431 1013 l 660 1013 l 500 833 l 232 833 m 75 557 b 275 758 75 678 156 758 l 583 758 l 583 536 l 353 536 l 353 0 l 75 0 "},"ŗ":{"ha":619,"x_min":0,"x_max":0,"o":"m 75 557 b 275 758 75 678 156 758 l 583 758 l 583 536 l 353 536 l 353 0 l 75 0 m 86 -347 l 124 -349 b 215 -272 189 -349 215 -321 l 215 -256 l 90 -256 l 90 -75 l 339 -75 l 339 -294 b 151 -482 339 -429 264 -482 l 86 -482 "},"s":{"ha":776,"x_min":0,"x_max":0,"o":"m 379 -14 b 31 243 153 -14 28 89 l 297 242 b 389 171 299 190 338 171 b 453 217 435 171 453 192 b 343 276 453 257 422 265 b 46 513 192 297 46 346 b 379 772 46 679 183 772 b 715 532 575 772 710 686 l 453 533 b 379 593 454 569 426 593 b 318 547 340 593 318 575 b 436 490 318 507 363 500 b 733 239 594 471 733 438 b 379 -14 733 88 611 -14 "},"ś":{"ha":776,"x_min":0,"x_max":0,"o":"m 354 1013 l 626 1013 l 490 833 l 282 833 m 379 -14 b 31 243 153 -14 28 89 l 297 242 b 389 171 299 190 338 171 b 453 217 435 171 453 192 b 343 276 453 257 422 265 b 46 513 192 297 46 346 b 379 772 46 679 183 772 b 715 532 575 772 710 686 l 453 533 b 379 593 454 569 426 593 b 318 547 340 593 318 575 b 436 490 318 507 363 500 b 733 239 594 471 733 438 b 379 -14 733 88 611 -14 "},"š":{"ha":776,"x_min":0,"x_max":0,"o":"m 92 1013 l 321 1013 l 386 936 l 451 1013 l 681 1013 l 521 833 l 253 833 m 379 -14 b 31 243 153 -14 28 89 l 297 242 b 389 171 299 190 338 171 b 453 217 435 171 453 192 b 343 276 453 257 422 265 b 46 513 192 297 46 346 b 379 772 46 679 183 772 b 715 532 575 772 710 686 l 453 533 b 379 593 454 569 426 593 b 318 547 340 593 318 575 b 436 490 318 507 363 500 b 733 239 594 471 733 438 b 379 -14 733 88 611 -14 "},"ş":{"ha":776,"x_min":0,"x_max":0,"o":"m 371 -368 b 135 -178 239 -368 132 -297 l 304 -178 b 358 -232 304 -203 318 -232 b 414 -179 396 -232 414 -210 b 343 -128 414 -142 388 -128 l 314 -128 l 314 -11 b 31 243 129 7 28 104 l 297 242 b 389 171 299 190 338 171 b 453 217 435 171 453 192 b 343 276 453 257 422 265 b 46 513 192 297 46 346 b 379 772 46 679 183 772 b 715 532 575 772 710 686 l 453 533 b 379 593 454 569 426 593 b 318 547 340 593 318 575 b 436 490 318 507 363 500 b 733 239 594 471 733 438 b 461 -10 733 107 640 13 l 461 -47 b 600 -192 550 -56 600 -112 b 371 -368 600 -301 501 -368 "},"ș":{"ha":776,"x_min":0,"x_max":0,"o":"m 379 -14 b 31 243 153 -14 28 89 l 297 242 b 389 171 299 190 338 171 b 453 217 435 171 453 192 b 343 276 453 257 422 265 b 46 513 192 297 46 346 b 379 772 46 679 183 772 b 715 532 575 772 710 686 l 453 533 b 379 593 454 569 426 593 b 318 547 340 593 318 575 b 436 490 318 507 363 500 b 733 239 594 471 733 438 b 379 -14 733 88 611 -14 m 260 -347 l 297 -349 b 389 -272 363 -349 389 -321 l 389 -256 l 264 -256 l 264 -75 l 513 -75 l 513 -294 b 325 -482 513 -429 438 -482 l 260 -482 "},"ß":{"ha":1003,"x_min":0,"x_max":0,"o":"m 160 536 l 28 536 l 28 758 l 171 758 b 546 1026 213 953 365 1026 b 892 749 757 1026 892 915 b 769 554 892 654 842 575 l 769 543 b 960 300 886 525 960 428 b 589 0 960 124 842 0 l 447 0 l 447 -232 l 160 -232 m 543 778 b 447 681 485 778 447 746 l 447 226 l 557 226 b 668 315 631 226 668 261 l 668 350 b 574 431 668 406 631 431 l 510 431 l 510 607 l 528 607 b 631 696 593 607 631 646 b 543 778 631 740 603 778 "},"t":{"ha":675,"x_min":0,"x_max":0,"o":"m 381 0 b 182 200 238 0 182 81 l 182 536 l 28 536 l 28 758 l 182 758 l 182 986 l 460 986 l 460 758 l 629 758 l 629 536 l 460 536 l 460 215 l 619 215 l 619 0 l 381 0 "},"ŧ":{"ha":675,"x_min":0,"x_max":0,"o":"m 94 468 l 182 468 l 182 536 l 28 536 l 28 758 l 182 758 l 182 986 l 460 986 l 460 758 l 629 758 l 629 536 l 460 536 l 460 468 l 561 468 l 561 303 l 460 303 l 460 215 l 619 215 l 619 0 l 381 0 b 182 200 238 0 182 81 l 182 303 l 94 303 "},"ť":{"ha":654,"x_min":0,"x_max":0,"o":"m 500 950 l 525 950 b 599 1024 578 950 599 976 l 599 1050 l 506 1050 l 506 1242 l 736 1242 l 736 997 b 563 821 736 878 674 821 l 500 821 m 381 0 b 182 200 238 0 182 81 l 182 536 l 28 536 l 28 758 l 182 758 l 182 986 l 460 986 l 460 758 l 629 758 l 629 536 l 460 536 l 460 215 l 619 215 l 619 0 l 381 0 "},"ţ":{"ha":675,"x_min":0,"x_max":0,"o":"m 28 758 l 182 758 l 182 986 l 460 986 l 460 758 l 629 758 l 629 536 l 460 536 l 460 215 l 619 215 l 619 0 l 492 0 l 492 -47 b 631 -192 581 -56 631 -112 b 401 -368 631 -301 532 -368 b 165 -178 269 -368 163 -297 l 335 -178 b 389 -232 335 -203 349 -232 b 444 -179 426 -232 444 -210 b 374 -128 444 -142 418 -128 l 344 -128 l 344 1 b 182 200 228 15 182 92 l 182 536 l 28 536 "},"ț":{"ha":675,"x_min":0,"x_max":0,"o":"m 381 0 b 182 200 238 0 182 81 l 182 536 l 28 536 l 28 758 l 182 758 l 182 986 l 460 986 l 460 758 l 629 758 l 629 536 l 460 536 l 460 215 l 619 215 l 619 0 l 381 0 m 290 -347 l 328 -349 b 419 -272 393 -349 419 -321 l 419 -256 l 294 -256 l 294 -75 l 543 -75 l 543 -294 b 356 -482 543 -429 468 -482 l 290 -482 "},"u":{"ha":892,"x_min":0,"x_max":0,"o":"m 314 -14 b 68 289 147 -14 68 108 l 68 758 l 346 758 l 346 328 b 444 210 346 235 383 210 b 546 336 517 210 546 260 l 546 758 l 824 758 l 824 0 l 565 0 l 546 107 l 532 107 b 314 -14 499 35 421 -14 "},"ú":{"ha":892,"x_min":0,"x_max":0,"o":"m 414 1013 l 686 1013 l 550 833 l 342 833 m 314 -14 b 68 289 147 -14 68 108 l 68 758 l 346 758 l 346 328 b 444 210 346 235 383 210 b 546 336 517 210 546 260 l 546 758 l 824 758 l 824 0 l 565 0 l 546 107 l 532 107 b 314 -14 499 35 421 -14 "},"û":{"ha":892,"x_min":0,"x_max":0,"o":"m 313 1013 l 581 1013 l 740 833 l 511 833 l 446 910 l 381 833 l 153 833 m 314 -14 b 68 289 147 -14 68 108 l 68 758 l 346 758 l 346 328 b 444 210 346 235 383 210 b 546 336 517 210 546 260 l 546 758 l 824 758 l 824 0 l 565 0 l 546 107 l 532 107 b 314 -14 499 35 421 -14 "},"ü":{"ha":892,"x_min":0,"x_max":0,"o":"m 133 1013 l 411 1013 l 411 833 l 133 833 m 479 1013 l 757 1013 l 757 833 l 479 833 m 314 -14 b 68 289 147 -14 68 108 l 68 758 l 346 758 l 346 328 b 444 210 346 235 383 210 b 546 336 517 210 546 260 l 546 758 l 824 758 l 824 0 l 565 0 l 546 107 l 532 107 b 314 -14 499 35 421 -14 "},"ù":{"ha":892,"x_min":0,"x_max":0,"o":"m 204 1013 l 476 1013 l 550 833 l 340 833 m 314 -14 b 68 289 147 -14 68 108 l 68 758 l 346 758 l 346 328 b 444 210 346 235 383 210 b 546 336 517 210 546 260 l 546 758 l 824 758 l 824 0 l 565 0 l 546 107 l 532 107 b 314 -14 499 35 421 -14 "},"ű":{"ha":892,"x_min":0,"x_max":0,"o":"m 274 1013 l 532 1013 l 397 833 l 197 833 m 628 1013 l 903 1013 l 715 833 l 494 833 m 314 -14 b 68 289 147 -14 68 108 l 68 758 l 346 758 l 346 328 b 444 210 346 235 383 210 b 546 336 517 210 546 260 l 546 758 l 824 758 l 824 0 l 565 0 l 546 107 l 532 107 b 314 -14 499 35 421 -14 "},"ū":{"ha":892,"x_min":0,"x_max":0,"o":"m 189 1008 l 701 1008 l 701 829 l 189 829 m 314 -14 b 68 289 147 -14 68 108 l 68 758 l 346 758 l 346 328 b 444 210 346 235 383 210 b 546 336 517 210 546 260 l 546 758 l 824 758 l 824 0 l 565 0 l 546 107 l 532 107 b 314 -14 499 35 421 -14 "},"ų":{"ha":892,"x_min":0,"x_max":0,"o":"m 314 -14 b 68 289 147 -14 68 108 l 68 758 l 346 758 l 346 328 b 444 210 346 235 383 210 b 546 336 517 210 546 260 l 546 758 l 824 758 l 824 0 l 696 0 l 688 -31 b 754 -106 674 -83 688 -106 l 846 -106 l 811 -278 l 679 -278 b 497 -143 563 -278 497 -229 b 565 3 497 -87 528 -42 l 546 107 l 532 107 b 314 -14 499 35 421 -14 "},"ů":{"ha":892,"x_min":0,"x_max":0,"o":"m 446 819 b 264 989 336 819 264 889 b 446 1158 264 1089 336 1158 b 628 989 557 1158 628 1089 b 446 819 628 889 557 819 m 446 938 b 496 989 475 938 496 958 b 446 1040 496 1019 475 1040 b 397 989 417 1040 397 1019 b 446 938 397 958 417 938 m 314 -14 b 68 289 147 -14 68 108 l 68 758 l 346 758 l 346 328 b 444 210 346 235 383 210 b 546 336 517 210 546 260 l 546 758 l 824 758 l 824 0 l 565 0 l 546 107 l 532 107 b 314 -14 499 35 421 -14 "},"v":{"ha":833,"x_min":0,"x_max":0,"o":"m 0 758 l 283 758 l 413 242 l 421 242 l 550 758 l 833 758 l 590 0 l 243 0 "},"w":{"ha":1151,"x_min":0,"x_max":0,"o":"m 11 758 l 264 758 l 339 331 l 346 274 l 354 274 l 361 331 l 444 758 l 708 758 l 788 331 l 794 274 l 803 274 l 810 331 l 885 758 l 1140 758 l 965 0 l 650 0 l 585 342 l 574 410 l 568 410 l 558 342 l 493 0 l 183 0 "},"ẃ":{"ha":1151,"x_min":0,"x_max":0,"o":"m 551 1013 l 824 1013 l 688 833 l 479 833 m 11 758 l 264 758 l 339 331 l 346 274 l 354 274 l 361 331 l 444 758 l 708 758 l 788 331 l 794 274 l 803 274 l 810 331 l 885 758 l 1140 758 l 965 0 l 650 0 l 585 342 l 574 410 l 568 410 l 558 342 l 493 0 l 183 0 "},"ŵ":{"ha":1151,"x_min":0,"x_max":0,"o":"m 450 1013 l 718 1013 l 878 833 l 649 833 l 583 910 l 518 833 l 290 833 m 11 758 l 264 758 l 339 331 l 346 274 l 354 274 l 361 331 l 444 758 l 708 758 l 788 331 l 794 274 l 803 274 l 810 331 l 885 758 l 1140 758 l 965 0 l 650 0 l 585 342 l 574 410 l 568 410 l 558 342 l 493 0 l 183 0 "},"ẅ":{"ha":1151,"x_min":0,"x_max":0,"o":"m 271 1013 l 549 1013 l 549 833 l 271 833 m 617 1013 l 894 1013 l 894 833 l 617 833 m 11 758 l 264 758 l 339 331 l 346 274 l 354 274 l 361 331 l 444 758 l 708 758 l 788 331 l 794 274 l 803 274 l 810 331 l 885 758 l 1140 758 l 965 0 l 650 0 l 585 342 l 574 410 l 568 410 l 558 342 l 493 0 l 183 0 "},"ẁ":{"ha":1151,"x_min":0,"x_max":0,"o":"m 342 1013 l 614 1013 l 688 833 l 478 833 m 11 758 l 264 758 l 339 331 l 346 274 l 354 274 l 361 331 l 444 758 l 708 758 l 788 331 l 794 274 l 803 274 l 810 331 l 885 758 l 1140 758 l 965 0 l 650 0 l 585 342 l 574 410 l 568 410 l 558 342 l 493 0 l 183 0 "},"x":{"ha":897,"x_min":0,"x_max":0,"o":"m 256 401 l 10 758 l 336 758 l 443 558 l 456 558 l 563 758 l 886 758 l 642 403 l 906 0 l 574 0 l 449 215 l 435 215 l 311 0 l -8 0 "},"y":{"ha":879,"x_min":0,"x_max":0,"o":"m 46 -17 l 303 -17 l 303 82 l 7 758 l 296 758 l 414 399 l 433 326 l 442 326 l 461 399 l 585 758 l 872 758 l 579 82 l 579 -65 b 403 -232 579 -179 508 -232 l 46 -232 "},"ý":{"ha":879,"x_min":0,"x_max":0,"o":"m 408 1013 l 681 1013 l 544 833 l 336 833 m 46 -17 l 303 -17 l 303 82 l 7 758 l 296 758 l 414 399 l 433 326 l 442 326 l 461 399 l 585 758 l 872 758 l 579 82 l 579 -65 b 403 -232 579 -179 508 -232 l 46 -232 "},"ŷ":{"ha":879,"x_min":0,"x_max":0,"o":"m 307 1013 l 575 1013 l 735 833 l 506 833 l 440 910 l 375 833 l 147 833 m 46 -17 l 303 -17 l 303 82 l 7 758 l 296 758 l 414 399 l 433 326 l 442 326 l 461 399 l 585 758 l 872 758 l 579 82 l 579 -65 b 403 -232 579 -179 508 -232 l 46 -232 "},"ÿ":{"ha":879,"x_min":0,"x_max":0,"o":"m 128 1013 l 406 1013 l 406 833 l 128 833 m 474 1013 l 751 1013 l 751 833 l 474 833 m 46 -17 l 303 -17 l 303 82 l 7 758 l 296 758 l 414 399 l 433 326 l 442 326 l 461 399 l 585 758 l 872 758 l 579 82 l 579 -65 b 403 -232 579 -179 508 -232 l 46 -232 "},"ỳ":{"ha":879,"x_min":0,"x_max":0,"o":"m 199 1013 l 471 1013 l 544 833 l 335 833 m 46 -17 l 303 -17 l 303 82 l 7 758 l 296 758 l 414 399 l 433 326 l 442 326 l 461 399 l 585 758 l 872 758 l 579 82 l 579 -65 b 403 -232 579 -179 508 -232 l 46 -232 "},"z":{"ha":769,"x_min":0,"x_max":0,"o":"m 42 197 l 338 536 l 58 536 l 58 758 l 700 758 l 700 565 l 415 222 l 728 222 l 728 0 l 42 0 "},"ź":{"ha":769,"x_min":0,"x_max":0,"o":"m 353 1013 l 625 1013 l 489 833 l 281 833 m 42 197 l 338 536 l 58 536 l 58 758 l 700 758 l 700 565 l 415 222 l 728 222 l 728 0 l 42 0 "},"ž":{"ha":769,"x_min":0,"x_max":0,"o":"m 90 1013 l 319 1013 l 385 936 l 450 1013 l 679 1013 l 519 833 l 251 833 m 42 197 l 338 536 l 58 536 l 58 758 l 700 758 l 700 565 l 415 222 l 728 222 l 728 0 l 42 0 "},"ż":{"ha":769,"x_min":0,"x_max":0,"o":"m 244 1013 l 522 1013 l 522 833 l 244 833 m 42 197 l 338 536 l 58 536 l 58 758 l 700 758 l 700 565 l 415 222 l 728 222 l 728 0 l 42 0 "},"ﬁ":{"ha":1026,"x_min":0,"x_max":0,"o":"m 674 1013 l 951 1013 l 951 833 l 674 833 m 429 536 l 429 0 l 151 0 l 151 536 l 10 536 l 10 758 l 151 758 l 151 838 b 354 1013 151 950 233 1013 l 600 1013 l 600 835 l 429 835 l 429 758 l 951 758 l 951 0 l 674 0 l 674 536 "},"ª":{"ha":546,"x_min":0,"x_max":0,"o":"m 175 535 b 21 671 85 535 21 588 l 21 672 b 221 831 21 772 82 818 l 318 839 l 318 851 b 267 896 318 882 297 896 b 213 861 233 896 215 883 l 38 861 b 285 1049 42 985 133 1049 b 515 853 431 1049 515 988 l 515 544 l 340 544 l 329 613 l 321 613 b 175 535 304 564 249 535 m 263 674 b 318 706 293 674 318 686 l 318 740 l 250 733 b 218 708 225 731 218 717 l 218 701 b 263 674 218 682 236 674 "},"º":{"ha":547,"x_min":0,"x_max":0,"o":"m 272 535 b 21 786 101 535 21 639 l 21 789 b 272 1049 21 967 121 1049 b 524 789 424 1049 524 965 l 524 786 b 272 535 524 639 442 535 m 272 694 b 324 750 308 694 324 714 l 324 832 b 272 892 324 869 306 892 b 219 832 239 892 219 869 l 219 750 b 272 694 219 714 236 694 "},"μ":{"ha":911,"x_min":0,"x_max":0,"o":"m 68 758 l 346 758 l 346 321 b 449 210 346 247 382 210 b 565 326 528 210 565 257 l 565 758 l 843 758 l 843 0 l 575 0 l 565 121 l 554 121 b 346 -14 521 33 440 -11 l 346 -183 l 68 -183 "},"➀":{"ha":1214,"x_min":0,"x_max":0,"o":"m 608 -42 b 57 496 282 -42 57 174 l 57 517 b 608 1054 57 839 282 1054 b 1160 517 935 1054 1160 839 l 1160 496 b 608 -42 1160 174 935 -42 m 608 78 b 1032 496 860 78 1032 246 l 1032 517 b 608 935 1032 767 860 935 b 185 517 356 935 185 767 l 185 496 b 608 78 185 246 356 78 m 538 551 l 407 551 l 407 694 l 542 694 l 567 800 l 725 800 l 725 213 l 538 213 "},"➁":{"ha":1214,"x_min":0,"x_max":0,"o":"m 608 -42 b 57 496 282 -42 57 174 l 57 517 b 608 1054 57 839 282 1054 b 1160 517 935 1054 1160 839 l 1160 496 b 608 -42 1160 174 935 -42 m 608 78 b 1032 496 860 78 1032 246 l 1032 517 b 608 935 1032 767 860 935 b 185 517 356 935 185 767 l 185 496 b 608 78 185 246 356 78 m 390 351 l 558 504 b 633 597 586 526 633 571 l 633 611 b 604 646 633 629 622 646 b 569 589 581 646 567 625 l 386 589 b 615 804 379 726 475 804 b 825 622 732 804 825 739 b 717 425 825 544 792 486 l 635 363 l 828 363 l 828 208 l 390 208 "},"➂":{"ha":1214,"x_min":0,"x_max":0,"o":"m 608 -42 b 57 496 282 -42 57 174 l 57 517 b 608 1054 57 839 282 1054 b 1160 517 935 1054 1160 839 l 1160 496 b 608 -42 1160 174 935 -42 m 608 78 b 1032 496 860 78 1032 246 l 1032 517 b 608 935 1032 767 860 935 b 185 517 356 935 185 767 l 185 496 b 608 78 185 246 356 78 m 601 204 b 372 392 464 204 369 274 l 558 392 b 607 360 558 374 579 360 b 649 394 632 360 649 375 l 649 401 b 606 440 649 428 635 440 l 529 440 l 529 572 l 588 572 b 636 611 621 572 636 588 l 636 618 b 601 653 636 640 624 653 b 557 624 579 653 563 643 l 376 624 b 613 808 379 742 469 808 b 824 649 738 808 824 750 b 740 525 824 589 790 543 l 740 519 b 842 388 801 510 842 458 b 601 204 842 279 754 204 "},"➃":{"ha":1214,"x_min":0,"x_max":0,"o":"m 608 -42 b 57 496 282 -42 57 174 l 57 517 b 608 1054 57 839 282 1054 b 1160 517 935 1054 1160 839 l 1160 496 b 608 -42 1160 174 935 -42 m 608 78 b 1032 496 860 78 1032 246 l 1032 517 b 608 935 1032 767 860 935 b 185 517 356 935 185 767 l 185 496 b 608 78 185 246 356 78 m 604 315 l 354 315 l 354 440 l 529 800 l 728 800 l 567 475 l 567 467 l 632 467 l 664 575 l 792 575 l 792 467 l 860 467 l 860 315 l 792 315 l 792 213 l 604 213 "},"➄":{"ha":1214,"x_min":0,"x_max":0,"o":"m 608 -42 b 57 496 282 -42 57 174 l 57 517 b 608 1054 57 839 282 1054 b 1160 517 935 1054 1160 839 l 1160 496 b 608 -42 1160 174 935 -42 m 608 78 b 1032 496 860 78 1032 246 l 1032 517 b 608 935 1032 767 860 935 b 185 517 356 935 185 767 l 185 496 b 608 78 185 246 356 78 m 608 208 b 397 385 479 208 394 279 l 578 385 b 617 367 582 378 597 367 b 656 407 640 367 656 383 l 656 418 b 618 457 656 443 638 457 b 579 422 596 457 578 443 l 394 422 l 414 804 l 813 804 l 813 649 l 585 649 l 572 586 l 581 583 b 664 607 601 599 635 607 b 847 411 774 607 847 535 b 608 208 847 294 757 208 "},"➅":{"ha":1214,"x_min":0,"x_max":0,"o":"m 608 -42 b 57 496 282 -42 57 174 l 57 517 b 608 1054 57 839 282 1054 b 1160 517 935 1054 1160 839 l 1160 496 b 608 -42 1160 174 935 -42 m 608 78 b 1032 496 860 78 1032 246 l 1032 517 b 608 935 1032 767 860 935 b 185 517 356 935 185 767 l 185 496 b 608 78 185 246 356 78 m 606 204 b 368 489 475 204 368 267 l 368 526 b 625 808 368 728 471 808 b 832 638 742 808 826 743 l 651 638 b 611 656 647 647 633 656 b 560 582 581 656 560 633 l 560 565 l 565 565 b 672 607 588 589 628 607 b 846 418 775 607 846 539 b 606 204 846 272 749 204 m 617 363 b 654 410 646 363 654 386 l 654 419 b 614 467 654 442 644 467 b 576 442 599 467 582 457 l 576 407 b 617 363 576 378 594 363 "},"➆":{"ha":1214,"x_min":0,"x_max":0,"o":"m 608 -42 b 57 496 282 -42 57 174 l 57 517 b 608 1054 57 839 282 1054 b 1160 517 935 1054 1160 839 l 1160 496 b 608 -42 1160 174 935 -42 m 608 78 b 1032 496 860 78 1032 246 l 1032 517 b 608 935 1032 767 860 935 b 185 517 356 935 185 767 l 185 496 b 608 78 185 246 356 78 m 489 213 b 635 621 499 421 536 468 l 635 638 l 525 638 l 525 557 l 376 557 l 376 800 l 838 800 l 838 665 b 693 213 726 435 703 428 l 489 213 "},"➇":{"ha":1214,"x_min":0,"x_max":0,"o":"m 608 -42 b 57 496 282 -42 57 174 l 57 517 b 608 1054 57 839 282 1054 b 1160 517 935 1054 1160 839 l 1160 496 b 608 -42 1160 174 935 -42 m 608 78 b 1032 496 860 78 1032 246 l 1032 517 b 608 935 1032 767 860 935 b 185 517 356 935 185 767 l 185 496 b 608 78 185 246 356 78 m 606 204 b 372 382 457 204 372 278 b 474 524 372 446 408 510 l 474 529 b 386 649 424 542 386 586 b 606 808 386 747 469 808 b 828 650 740 808 828 749 b 740 529 828 592 796 544 l 740 524 b 842 382 800 510 842 458 b 606 204 842 279 757 204 m 606 572 b 642 608 632 572 642 589 l 642 622 b 606 658 642 642 629 658 b 572 622 583 658 572 642 l 572 608 b 606 572 572 589 582 572 m 606 354 b 649 400 631 354 649 367 l 649 411 b 606 457 649 435 638 457 b 564 411 576 457 564 435 l 564 400 b 606 354 564 367 583 354 "},"➈":{"ha":1214,"x_min":0,"x_max":0,"o":"m 608 -42 b 57 496 282 -42 57 174 l 57 517 b 608 1054 57 839 282 1054 b 1160 517 935 1054 1160 839 l 1160 496 b 608 -42 1160 174 935 -42 m 608 78 b 1032 496 860 78 1032 246 l 1032 517 b 608 935 1032 767 860 935 b 185 517 356 935 185 767 l 185 496 b 608 78 185 246 356 78 m 590 204 b 382 375 474 204 388 269 l 564 375 b 603 357 568 365 581 357 b 654 431 635 357 654 381 b 656 447 654 433 654 440 l 649 447 b 542 406 631 425 590 406 b 368 594 440 406 368 474 b 608 808 368 740 467 808 b 846 524 742 808 846 746 l 846 486 b 590 204 846 283 744 204 m 600 546 b 638 571 618 546 633 556 l 638 606 b 599 649 638 635 621 649 b 560 603 571 649 560 628 l 560 593 b 600 546 560 571 571 546 "},"₀":{"ha":629,"x_min":0,"x_max":0,"o":"m 314 -104 b 44 239 117 -104 44 60 l 44 246 b 314 600 44 428 113 600 b 585 246 515 600 585 431 l 585 239 b 314 -104 585 60 513 -104 m 314 85 b 363 149 340 85 363 97 l 363 347 b 314 411 363 385 351 411 b 267 347 278 411 267 385 l 267 149 b 314 85 267 97 290 85 "},"₁":{"ha":553,"x_min":0,"x_max":0,"o":"m 221 299 l 68 299 l 68 465 l 226 465 l 258 590 l 443 590 l 443 -99 l 221 -99 "},"₂":{"ha":619,"x_min":0,"x_max":0,"o":"m 51 69 l 250 249 b 336 358 279 275 336 325 l 336 375 b 301 414 336 396 322 414 b 261 346 281 414 257 396 l 47 346 b 315 600 39 513 153 600 b 563 386 456 600 563 522 b 433 154 563 299 524 228 l 339 82 l 565 82 l 565 -99 l 51 -99 "},"₃":{"ha":632,"x_min":0,"x_max":0,"o":"m 303 -108 b 35 113 143 -108 32 -29 l 251 113 b 308 74 253 89 276 74 b 357 114 338 74 357 92 l 357 122 b 306 168 357 153 340 168 l 217 168 l 217 322 l 288 322 b 344 369 325 322 344 343 l 344 378 b 300 418 344 403 328 418 b 251 383 276 418 257 408 l 38 383 b 317 600 43 526 153 600 b 564 413 463 600 564 532 b 464 268 564 342 522 289 l 464 261 b 583 108 536 250 583 190 b 303 -108 583 -21 481 -108 "},"₄":{"ha":669,"x_min":0,"x_max":0,"o":"m 335 22 l 42 22 l 42 169 l 246 590 l 478 590 l 290 208 l 290 200 l 335 200 l 372 326 l 556 326 l 556 200 l 635 200 l 635 22 l 556 22 l 556 -99 l 335 -99 "},"₅":{"ha":626,"x_min":0,"x_max":0,"o":"m 306 -108 b 57 99 151 -108 54 -25 l 268 99 b 313 78 272 92 289 78 b 360 124 342 78 360 97 l 360 138 b 314 183 360 168 339 183 b 268 143 290 183 268 168 l 53 143 l 76 590 l 543 590 l 543 408 l 275 408 l 261 333 l 269 331 b 369 358 296 350 338 358 b 583 131 497 358 583 275 b 306 -108 583 -8 478 -108 "},"₆":{"ha":644,"x_min":0,"x_max":0,"o":"m 324 -108 b 44 225 168 -108 44 -35 l 44 269 b 344 600 44 507 164 600 b 588 400 481 600 581 524 l 375 400 b 329 421 371 411 354 421 b 268 335 292 421 268 394 l 268 317 l 275 317 b 400 363 300 342 346 363 b 606 142 521 363 606 283 b 324 -108 606 -29 489 -108 m 336 78 b 379 132 368 78 379 103 l 379 144 b 332 200 379 171 368 200 b 288 172 311 200 293 188 l 288 129 b 336 78 288 96 307 78 "},"₇":{"ha":619,"x_min":0,"x_max":0,"o":"m 172 -99 b 342 382 182 146 226 200 l 342 399 l 213 399 l 213 306 l 39 306 l 39 590 l 581 590 l 581 432 b 408 -99 451 167 421 156 l 172 -99 "},"₈":{"ha":643,"x_min":0,"x_max":0,"o":"m 321 -108 b 47 99 146 -108 47 -22 b 164 265 47 179 92 250 l 164 272 b 64 414 108 288 64 339 b 321 600 64 529 163 600 b 581 414 479 600 581 529 b 478 272 581 346 542 292 l 478 265 b 596 99 547 251 596 189 b 321 -108 596 -19 499 -108 m 321 322 b 363 367 350 322 363 343 l 363 382 b 321 424 363 404 349 424 b 282 382 294 424 282 404 l 282 367 b 321 322 282 344 292 322 m 321 67 b 371 121 350 67 371 81 l 371 135 b 321 188 371 163 358 188 b 272 135 285 188 272 163 l 272 121 b 321 67 272 83 290 67 "},"₉":{"ha":643,"x_min":0,"x_max":0,"o":"m 299 -108 b 54 92 161 -108 60 -32 l 265 92 b 313 71 269 83 282 71 b 374 157 350 71 374 96 l 374 175 l 365 175 b 242 128 340 144 289 128 b 38 349 121 128 38 207 b 318 600 38 521 153 600 b 599 267 474 600 599 526 l 599 222 b 299 -108 599 -15 478 -108 m 310 292 b 356 319 329 292 347 301 l 356 363 b 307 414 356 396 333 414 b 264 360 275 414 264 389 l 264 347 b 310 292 264 319 275 292 "},"⁰":{"ha":629,"x_min":0,"x_max":0,"o":"m 314 417 b 44 760 117 417 44 581 l 44 767 b 314 1121 44 949 113 1121 b 585 767 515 1121 585 951 l 585 760 b 314 417 585 581 513 417 m 314 606 b 363 669 340 606 363 618 l 363 868 b 314 932 363 906 351 932 b 267 868 278 932 267 906 l 267 669 b 314 606 267 618 290 606 "},"¹":{"ha":553,"x_min":0,"x_max":0,"o":"m 221 819 l 68 819 l 68 986 l 226 986 l 258 1111 l 443 1111 l 443 422 l 221 422 "},"²":{"ha":619,"x_min":0,"x_max":0,"o":"m 51 590 l 250 769 b 336 879 279 796 336 846 l 336 896 b 301 935 336 917 322 935 b 261 867 281 935 257 917 l 47 867 b 315 1121 39 1033 153 1121 b 563 907 456 1121 563 1043 b 433 675 563 819 524 749 l 339 603 l 565 603 l 565 422 l 51 422 "},"³":{"ha":632,"x_min":0,"x_max":0,"o":"m 303 413 b 35 633 143 413 32 492 l 251 633 b 308 594 253 610 276 594 b 357 635 338 594 357 613 l 357 643 b 306 689 357 674 340 689 l 217 689 l 217 843 l 288 843 b 344 890 325 843 344 864 l 344 899 b 300 939 344 924 328 939 b 251 904 276 939 257 929 l 38 904 b 317 1121 43 1047 153 1121 b 564 933 463 1121 564 1053 b 464 789 564 863 522 810 l 464 782 b 583 629 536 771 583 711 b 303 413 583 500 481 413 "},"⁴":{"ha":669,"x_min":0,"x_max":0,"o":"m 335 543 l 42 543 l 42 690 l 246 1111 l 478 1111 l 290 729 l 290 721 l 335 721 l 372 847 l 556 847 l 556 721 l 635 721 l 635 543 l 556 543 l 556 422 l 335 422 "},"⁵":{"ha":626,"x_min":0,"x_max":0,"o":"m 306 413 b 57 619 151 413 54 496 l 268 619 b 313 599 272 613 289 599 b 360 644 342 599 360 618 l 360 658 b 314 704 360 689 339 704 b 268 664 290 704 268 689 l 53 664 l 76 1111 l 543 1111 l 543 929 l 275 929 l 261 854 l 269 851 b 369 879 296 871 338 879 b 583 651 497 879 583 796 b 306 413 583 513 478 413 "},"⁶":{"ha":644,"x_min":0,"x_max":0,"o":"m 324 413 b 44 746 168 413 44 486 l 44 790 b 344 1121 44 1028 164 1121 b 588 921 481 1121 581 1044 l 375 921 b 329 942 371 932 354 942 b 268 856 292 942 268 915 l 268 838 l 275 838 b 400 883 300 863 346 883 b 606 663 521 883 606 804 b 324 413 606 492 489 413 m 336 599 b 379 653 368 599 379 624 l 379 665 b 332 721 379 692 368 721 b 288 693 311 721 293 708 l 288 650 b 336 599 288 617 307 599 "},"⁷":{"ha":619,"x_min":0,"x_max":0,"o":"m 172 422 b 342 903 182 667 226 721 l 342 919 l 213 919 l 213 826 l 39 826 l 39 1111 l 581 1111 l 581 953 b 408 422 451 688 421 676 l 172 422 "},"⁸":{"ha":643,"x_min":0,"x_max":0,"o":"m 321 413 b 47 619 146 413 47 499 b 164 786 47 700 92 771 l 164 793 b 64 935 108 808 64 860 b 321 1121 64 1050 163 1121 b 581 935 479 1121 581 1050 b 478 793 581 867 542 813 l 478 786 b 596 619 547 772 596 710 b 321 413 596 501 499 413 m 321 843 b 363 888 350 843 363 864 l 363 903 b 321 944 363 925 349 944 b 282 903 294 944 282 925 l 282 888 b 321 843 282 865 292 843 m 321 588 b 371 642 350 588 371 601 l 371 656 b 321 708 371 683 358 708 b 272 656 285 708 272 683 l 272 642 b 321 588 272 604 290 588 "},"⁹":{"ha":643,"x_min":0,"x_max":0,"o":"m 299 413 b 54 613 161 413 60 489 l 265 613 b 313 592 269 604 282 592 b 374 678 350 592 374 617 l 374 696 l 365 696 b 242 649 340 665 289 649 b 38 869 121 649 38 728 b 318 1121 38 1042 153 1121 b 599 788 474 1121 599 1047 l 599 743 b 299 413 599 506 478 413 m 310 813 b 356 840 329 813 347 822 l 356 883 b 307 935 356 917 333 935 b 264 881 275 935 264 910 l 264 868 b 310 813 264 840 275 813 "},"⁄":{"ha":235,"x_min":0,"x_max":0,"o":"m 317 1067 l 479 1067 l -83 -64 l -244 -64 "},"½":{"ha":1138,"x_min":0,"x_max":0,"o":"m 710 1067 l 872 1067 l 310 -64 l 149 -64 m 143 764 l 13 764 l 13 907 l 147 907 l 172 1013 l 331 1013 l 331 425 l 143 425 m 667 143 l 835 296 b 910 389 863 318 910 363 l 910 403 b 881 438 910 421 899 438 b 846 381 857 438 843 417 l 663 381 b 892 596 656 518 751 596 b 1101 414 1008 596 1101 531 b 993 217 1101 336 1068 278 l 911 154 l 1104 154 l 1104 0 l 667 0 "},"¼":{"ha":1103,"x_min":0,"x_max":0,"o":"m 710 1067 l 872 1067 l 310 -64 l 149 -64 m 143 764 l 13 764 l 13 907 l 147 907 l 172 1013 l 331 1013 l 331 425 l 143 425 m 835 103 l 585 103 l 585 228 l 760 588 l 958 588 l 797 263 l 797 254 l 850 254 l 882 363 l 1022 363 l 1022 254 l 1090 254 l 1090 103 l 1022 103 l 1022 0 l 835 0 "},"¾":{"ha":1238,"x_min":0,"x_max":0,"o":"m 844 1067 l 1007 1067 l 444 -64 l 283 -64 m 253 417 b 24 604 115 417 21 486 l 210 604 b 258 572 210 586 231 572 b 300 607 283 572 300 588 l 300 614 b 257 653 300 640 286 653 l 181 653 l 181 785 l 239 785 b 288 824 272 785 288 800 l 288 831 b 253 865 288 853 275 865 b 208 836 231 865 214 856 l 28 836 b 264 1021 31 954 121 1021 b 475 861 389 1021 475 963 b 392 738 475 801 442 756 l 392 732 b 493 600 453 722 493 671 b 253 417 493 492 406 417 m 969 103 l 719 103 l 719 228 l 894 588 l 1093 588 l 932 263 l 932 254 l 985 254 l 1017 363 l 1157 363 l 1157 254 l 1225 254 l 1225 103 l 1157 103 l 1157 0 l 969 0 "},".":{"ha":385,"x_min":0,"x_max":0,"o":"m 63 236 l 322 236 l 322 0 l 63 0 "},",":{"ha":365,"x_min":0,"x_max":0,"o":"m 22 -115 l 58 -115 b 160 -31 132 -115 160 -85 l 160 0 l 43 0 l 43 236 l 303 236 l 303 -40 b 93 -249 303 -199 218 -249 l 22 -249 "},":":{"ha":468,"x_min":0,"x_max":0,"o":"m 104 758 l 364 758 l 364 522 l 104 522 m 104 236 l 364 236 l 364 0 l 104 0 "},";":{"ha":468,"x_min":0,"x_max":0,"o":"m 104 758 l 364 758 l 364 522 l 104 522 m 83 -115 l 119 -115 b 221 -31 193 -115 221 -85 l 221 0 l 104 0 l 104 236 l 364 236 l 364 -40 b 154 -249 364 -199 279 -249 l 83 -249 "},"…":{"ha":1154,"x_min":0,"x_max":0,"o":"m 63 236 l 322 236 l 322 0 l 63 0 m 447 236 l 707 236 l 707 0 l 447 0 m 832 236 l 1092 236 l 1092 0 l 832 0 "},"!":{"ha":429,"x_min":0,"x_max":0,"o":"m 74 676 l 74 1013 l 356 1013 l 356 676 l 288 339 l 144 339 m 92 240 l 336 240 l 336 0 l 92 0 "},"¡":{"ha":429,"x_min":0,"x_max":0,"o":"m 338 518 l 93 518 l 93 758 l 338 758 m 356 82 l 356 -254 l 74 -254 l 74 82 l 142 419 l 285 419 "},"?":{"ha":826,"x_min":0,"x_max":0,"o":"m 299 347 b 500 707 299 519 500 593 b 408 794 500 760 475 794 b 306 703 339 794 306 758 l 35 703 b 422 1026 33 897 189 1026 b 785 738 654 1026 785 911 b 544 329 785 524 544 447 l 544 321 l 299 321 m 292 236 l 551 236 l 551 0 l 292 0 "},"¿":{"ha":826,"x_min":0,"x_max":0,"o":"m 535 522 l 275 522 l 275 758 l 535 758 m 528 411 b 326 51 528 239 326 165 b 418 -36 326 -1 351 -36 b 521 56 488 -36 521 0 l 792 56 b 404 -268 793 -139 638 -268 b 42 21 172 -268 42 -153 b 282 429 42 235 282 311 l 282 438 l 528 438 "},"·":{"ha":399,"x_min":0,"x_max":0,"o":"m 63 385 b 200 519 63 463 121 519 b 336 385 281 519 336 463 b 200 250 336 307 281 250 b 63 385 121 250 63 307 "},"•":{"ha":493,"x_min":0,"x_max":0,"o":"m 56 385 b 247 575 56 493 138 575 b 438 385 363 575 438 493 b 247 194 438 276 363 194 b 56 385 138 194 56 276 "},"*":{"ha":456,"x_min":0,"x_max":0,"o":"m 175 675 l 197 758 l 133 697 l 81 668 l 29 760 l 79 788 l 165 814 l 79 839 l 29 868 l 81 958 l 133 929 l 197 868 l 175 954 l 175 1013 l 281 1013 l 281 954 l 258 868 l 322 929 l 375 958 l 426 868 l 376 839 l 289 814 l 376 788 l 426 760 l 375 668 l 322 697 l 258 758 l 281 675 l 281 615 l 175 615 "},"#":{"ha":983,"x_min":0,"x_max":0,"o":"m 167 207 l 47 207 l 47 431 l 167 431 l 167 582 l 47 582 l 47 806 l 167 806 l 167 1014 l 415 1014 l 415 806 l 572 806 l 572 1014 l 817 1014 l 817 806 l 935 806 l 935 582 l 817 582 l 817 431 l 935 431 l 935 207 l 817 207 l 817 0 l 572 0 l 572 207 l 415 207 l 415 0 l 167 0 m 572 431 l 572 582 l 415 582 l 415 431 "},"/":{"ha":774,"x_min":0,"x_max":0,"o":"m 436 1013 l 703 1013 l 304 -114 l 42 -114 "},"\\":{"ha":774,"x_min":0,"x_max":0,"o":"m 71 1013 l 336 1013 l 732 -114 l 469 -114 "},"(":{"ha":536,"x_min":0,"x_max":0,"o":"m 297 -232 b 56 435 150 -87 56 179 b 297 1101 56 690 150 957 l 532 1101 b 324 435 408 950 324 689 b 532 -232 324 182 407 -79 l 297 -232 "},")":{"ha":536,"x_min":0,"x_max":0,"o":"m 239 1101 b 481 435 386 957 481 690 b 239 -232 481 179 386 -87 l 4 -232 b 213 435 128 -81 213 181 b 4 1101 213 688 129 949 l 239 1101 "},"{":{"ha":638,"x_min":0,"x_max":0,"o":"m 360 -232 b 175 -62 235 -232 175 -158 l 175 186 b 88 285 175 249 140 285 l 56 285 l 56 472 l 88 472 b 175 574 143 472 175 514 l 175 843 b 360 1013 175 939 235 1013 l 596 1013 l 596 818 l 433 818 l 433 564 b 308 389 433 450 383 404 l 308 385 b 433 204 406 351 433 285 l 433 -39 l 596 -39 l 596 -232 l 360 -232 "},"}":{"ha":638,"x_min":0,"x_max":0,"o":"m 278 1013 b 463 843 403 1013 463 939 l 463 594 b 550 496 463 532 497 496 l 582 496 l 582 308 l 550 308 b 463 207 494 308 463 267 l 463 -62 b 278 -232 463 -158 403 -232 l 42 -232 l 42 -37 l 204 -37 l 204 217 b 329 392 204 331 254 376 l 329 396 b 204 576 232 429 204 496 l 204 819 l 42 819 l 42 1013 l 278 1013 "},"[":{"ha":560,"x_min":0,"x_max":0,"o":"m 96 1013 l 518 1013 l 518 818 l 354 818 l 354 -39 l 518 -39 l 518 -232 l 96 -232 "},"]":{"ha":560,"x_min":0,"x_max":0,"o":"m 464 -232 l 42 -232 l 42 -37 l 206 -37 l 206 819 l 42 819 l 42 1013 l 464 1013 "},"-":{"ha":665,"x_min":0,"x_max":0,"o":"m 83 522 l 582 522 l 582 290 l 83 290 "},"–":{"ha":872,"x_min":0,"x_max":0,"o":"m 83 522 l 789 522 l 789 290 l 83 290 "},"—":{"ha":1118,"x_min":0,"x_max":0,"o":"m 83 522 l 1035 522 l 1035 290 l 83 290 "},"_":{"ha":567,"x_min":0,"x_max":0,"o":"m 0 0 l 567 0 l 567 -232 l 0 -232 "},"‚":{"ha":365,"x_min":0,"x_max":0,"o":"m 22 -115 l 58 -115 b 160 -31 132 -115 160 -85 l 160 0 l 43 0 l 43 236 l 303 236 l 303 -40 b 93 -249 303 -199 218 -249 l 22 -249 "},"„":{"ha":717,"x_min":0,"x_max":0,"o":"m 22 -115 l 58 -115 b 160 -31 132 -115 160 -85 l 160 0 l 43 0 l 43 236 l 303 236 l 303 -40 b 93 -249 303 -199 218 -249 l 22 -249 m 374 -115 l 410 -115 b 511 -31 483 -115 511 -85 l 511 0 l 394 0 l 394 236 l 654 236 l 654 -40 b 444 -249 654 -199 569 -249 l 374 -249 "},"“":{"ha":717,"x_min":0,"x_max":0,"o":"m 694 879 l 658 879 b 557 794 585 879 557 849 l 557 764 l 674 764 l 674 528 l 414 528 l 414 804 b 624 1013 414 963 499 1013 l 694 1013 m 343 879 l 307 879 b 206 794 233 879 206 849 l 206 764 l 322 764 l 322 528 l 63 528 l 63 804 b 272 1013 63 963 147 1013 l 343 1013 "},"”":{"ha":717,"x_min":0,"x_max":0,"o":"m 22 660 l 58 660 b 160 744 132 660 160 690 l 160 775 l 43 775 l 43 1011 l 303 1011 l 303 735 b 93 526 303 576 218 526 l 22 526 m 374 660 l 410 660 b 511 744 483 660 511 690 l 511 775 l 394 775 l 394 1011 l 654 1011 l 654 735 b 444 526 654 576 569 526 l 374 526 "},"‘":{"ha":365,"x_min":0,"x_max":0,"o":"m 343 878 l 307 878 b 206 793 233 878 206 847 l 206 763 l 322 763 l 322 526 l 63 526 l 63 803 b 272 1011 63 961 147 1011 l 343 1011 "},"’":{"ha":365,"x_min":0,"x_max":0,"o":"m 22 660 l 58 660 b 160 744 132 660 160 690 l 160 775 l 43 775 l 43 1011 l 303 1011 l 303 735 b 93 526 303 576 218 526 l 22 526 "},"«":{"ha":846,"x_min":0,"x_max":0,"o":"m 29 381 l 208 758 l 447 758 l 285 381 l 447 0 l 208 0 m 396 381 l 575 758 l 815 758 l 650 381 l 815 0 l 575 0 "},"»":{"ha":846,"x_min":0,"x_max":0,"o":"m 817 378 l 638 0 l 399 0 l 561 378 l 399 758 l 638 758 m 450 378 l 271 0 l 31 0 l 196 378 l 31 758 l 271 758 "},"‹":{"ha":478,"x_min":0,"x_max":0,"o":"m 29 381 l 208 758 l 447 758 l 285 381 l 447 0 l 208 0 "},"›":{"ha":478,"x_min":0,"x_max":0,"o":"m 449 378 l 269 0 l 31 0 l 193 378 l 31 758 l 269 758 "},"\"":{"ha":661,"x_min":0,"x_max":0,"o":"m 104 483 l 42 765 l 42 1013 l 289 1013 l 289 765 l 225 483 m 435 483 l 372 765 l 372 1013 l 619 1013 l 619 765 l 556 483 "},"'":{"ha":331,"x_min":0,"x_max":0,"o":"m 104 483 l 42 765 l 42 1013 l 289 1013 l 289 765 l 225 483 "}," ":{"ha":278,"x_min":0,"x_max":0,"o":""}," ":{"ha":278,"x_min":0,"x_max":0,"o":""},"\r":{"ha":213,"x_min":0,"x_max":0,"o":""},"€":{"ha":1153,"x_min":0,"x_max":0,"o":"m 43 478 l 129 478 b 129 504 129 486 129 496 l 129 507 b 129 535 129 517 129 526 l 43 535 l 43 669 l 147 669 b 635 1025 203 901 383 1025 b 1111 651 901 1025 1089 875 l 806 651 b 635 769 782 726 718 769 b 453 669 538 769 478 732 l 686 669 l 665 535 l 439 535 l 439 478 l 657 478 l 638 340 l 454 340 b 635 242 482 272 547 242 b 806 363 717 242 786 290 l 1111 363 b 635 -14 1089 138 890 -14 b 147 340 354 -14 196 124 l 43 340 "},"₿":{"ha":971,"x_min":0,"x_max":0,"o":"m 88 1013 l 247 1013 l 247 1132 l 404 1132 l 404 1013 l 490 1013 l 490 1132 l 647 1132 l 647 1011 b 919 753 842 996 919 896 b 749 532 919 639 857 551 l 749 521 b 946 288 875 514 946 418 b 647 4 946 104 829 21 l 647 -118 l 488 -118 l 488 0 l 404 0 l 404 -118 l 246 -118 l 246 0 l 88 0 m 514 621 b 614 703 579 621 614 651 l 614 722 b 514 801 614 783 574 801 l 374 801 l 374 621 m 529 211 b 636 300 592 211 636 240 l 636 325 b 529 414 636 378 603 414 l 374 414 l 374 211 "},"¢":{"ha":838,"x_min":0,"x_max":0,"o":"m 331 -4 b 43 381 153 35 43 178 b 331 761 43 582 151 722 l 331 871 l 508 871 l 508 767 b 794 465 678 742 793 626 l 525 465 b 432 549 515 524 481 549 b 324 379 354 549 324 483 b 431 210 324 258 367 210 b 528 292 492 210 521 244 l 796 292 b 508 -8 792 131 675 18 l 508 -118 l 331 -118 "},"¤":{"ha":979,"x_min":0,"x_max":0,"o":"m 81 235 l 207 358 b 183 483 188 403 183 447 b 208 613 183 532 192 576 l 82 735 l 235 890 l 372 751 b 490 768 408 763 456 768 b 607 751 521 768 565 764 l 744 890 l 897 735 l 771 613 b 799 483 790 571 799 529 b 772 358 799 443 790 399 l 899 235 l 746 81 l 610 215 b 490 201 572 206 528 201 b 369 215 440 201 406 207 l 233 81 m 490 410 b 571 483 533 410 571 439 b 490 560 571 528 535 560 b 411 483 447 560 411 528 b 490 410 411 438 447 410 "},"$":{"ha":960,"x_min":0,"x_max":0,"o":"m 396 -11 b 35 317 161 11 32 136 l 333 317 b 479 213 335 246 389 213 b 604 290 560 213 604 236 b 382 392 604 363 521 367 b 49 699 160 433 49 529 b 396 1022 49 899 185 1003 l 396 1132 l 557 1132 l 557 1021 b 896 719 772 1000 893 893 l 599 719 b 471 804 597 775 547 804 b 364 736 403 804 364 781 b 568 643 364 672 426 665 b 918 315 778 610 918 536 b 557 -10 918 117 776 11 l 557 -118 l 396 -118 "},"ƒ":{"ha":818,"x_min":0,"x_max":0,"o":"m 10 103 l 196 103 l 244 469 l 75 469 l 75 689 l 275 689 l 288 783 b 549 1013 303 906 351 1013 l 778 1013 l 778 792 l 575 792 l 561 689 l 751 689 l 751 469 l 532 469 l 486 111 b 225 -118 464 -54 363 -118 l 10 -118 "},"₺":{"ha":968,"x_min":0,"x_max":0,"o":"m 104 318 l 4 278 l 4 483 l 104 525 l 104 610 l 4 571 l 4 775 l 104 819 l 104 1013 l 381 1013 l 381 926 l 522 985 l 522 779 l 381 718 l 381 632 l 522 692 l 522 486 l 381 426 l 381 267 b 631 497 526 269 619 361 l 918 497 b 328 0 906 179 671 0 l 104 0 "},"₹":{"ha":886,"x_min":0,"x_max":0,"o":"m 378 214 b 236 332 378 318 318 332 l 88 332 l 88 535 l 274 535 b 422 596 368 535 407 557 l 88 596 l 88 733 l 424 733 b 264 792 410 771 372 792 l 88 792 l 88 1013 l 846 1013 l 846 844 l 664 844 l 664 835 b 726 749 694 815 718 781 l 846 749 l 846 581 l 724 581 b 522 432 696 499 621 449 l 522 421 b 681 213 610 403 681 358 l 681 0 l 378 0 "},"₪":{"ha":1157,"x_min":0,"x_max":0,"o":"m 582 0 b 369 219 458 0 369 42 l 369 747 l 556 747 l 556 219 l 836 219 l 836 1013 l 1069 1013 l 1069 0 l 582 0 m 88 1013 l 575 1013 b 789 793 700 1013 789 971 l 789 267 l 603 267 l 603 796 l 321 796 l 321 0 l 88 0 "},"£":{"ha":931,"x_min":0,"x_max":0,"o":"m 32 235 l 136 235 l 136 390 l 32 390 l 32 594 l 136 594 l 136 683 b 504 1025 136 907 283 1025 b 861 706 733 1025 861 897 l 861 675 l 594 675 l 594 692 b 508 779 594 753 560 779 b 422 683 450 779 422 740 l 422 594 l 621 594 l 621 390 l 422 390 l 422 235 l 644 235 l 644 307 l 879 307 l 879 0 l 32 0 "},"₩":{"ha":1351,"x_min":0,"x_max":0,"o":"m 119 404 l 13 404 l 13 610 l 82 610 l 8 1013 l 335 1013 l 389 565 l 414 321 l 426 321 l 499 1013 l 856 1013 l 933 318 l 946 318 l 965 561 l 1015 1013 l 1342 1013 l 1268 610 l 1343 610 l 1343 404 l 1229 404 l 1156 0 l 756 0 l 682 606 l 671 606 l 596 0 l 193 0 "},"¥":{"ha":999,"x_min":0,"x_max":0,"o":"m 357 110 l 118 110 l 118 299 l 357 299 l 357 381 l 118 381 l 118 572 l 243 572 l 13 1013 l 317 1013 l 489 611 l 503 611 l 683 1013 l 983 1013 l 758 572 l 879 572 l 879 381 l 640 381 l 640 299 l 879 299 l 879 110 l 640 110 l 640 0 l 357 0 "},"+":{"ha":754,"x_min":0,"x_max":0,"o":"m 267 393 l 49 393 l 49 608 l 267 608 l 267 829 l 488 829 l 488 608 l 706 608 l 706 393 l 488 393 l 488 172 l 267 172 "},"−":{"ha":917,"x_min":0,"x_max":0,"o":"m 131 608 l 788 608 l 788 393 l 131 393 "},"×":{"ha":815,"x_min":0,"x_max":0,"o":"m 83 322 l 263 501 l 83 679 l 229 825 l 408 647 l 586 825 l 732 679 l 556 501 l 732 322 l 586 176 l 408 356 l 229 176 "},"÷":{"ha":925,"x_min":0,"x_max":0,"o":"m 344 872 l 583 872 l 583 682 l 344 682 m 106 608 l 821 608 l 821 393 l 106 393 m 344 319 l 583 319 l 583 131 l 344 131 "},"=":{"ha":915,"x_min":0,"x_max":0,"o":"m 131 776 l 786 776 l 786 560 l 131 560 m 131 442 l 786 442 l 786 225 l 131 225 "},"≠":{"ha":832,"x_min":0,"x_max":0,"o":"m 200 225 l 89 225 l 89 442 l 290 442 l 339 560 l 89 560 l 89 776 l 429 776 l 489 921 l 694 921 l 635 776 l 744 776 l 744 560 l 544 560 l 496 442 l 744 442 l 744 225 l 406 225 l 346 81 l 140 81 "},">":{"ha":958,"x_min":0,"x_max":0,"o":"m 126 381 l 553 489 l 553 508 l 126 621 l 126 899 l 832 654 l 832 343 l 126 103 "},"<":{"ha":958,"x_min":0,"x_max":0,"o":"m 832 621 l 406 513 l 406 493 l 832 381 l 832 103 l 126 347 l 126 658 l 832 899 "},"≥":{"ha":953,"x_min":0,"x_max":0,"o":"m 122 468 l 553 569 l 553 582 l 122 674 l 122 921 l 831 728 l 831 424 l 122 221 m 122 192 l 831 192 l 831 0 l 122 0 "},"≤":{"ha":953,"x_min":0,"x_max":0,"o":"m 122 424 l 122 728 l 831 921 l 831 674 l 400 582 l 400 569 l 831 468 l 831 221 m 122 192 l 831 192 l 831 0 l 122 0 "},"±":{"ha":892,"x_min":0,"x_max":0,"o":"m 335 450 l 89 450 l 89 665 l 335 665 l 335 843 l 557 843 l 557 665 l 804 665 l 804 450 l 557 450 l 557 272 l 335 272 m 89 192 l 804 192 l 804 0 l 89 0 "},"≈":{"ha":929,"x_min":0,"x_max":0,"o":"m 132 554 b 321 839 117 764 221 839 b 583 749 442 839 492 749 b 669 831 642 749 668 788 l 799 831 b 603 542 811 631 717 542 b 329 636 463 542 407 636 b 261 554 274 636 258 582 l 132 554 m 132 190 b 321 475 117 401 222 475 b 583 385 442 475 492 385 b 669 468 642 385 668 424 l 799 468 b 603 178 811 265 715 178 b 329 272 463 178 407 272 b 261 190 275 272 258 219 l 132 190 "},"¬":{"ha":935,"x_min":0,"x_max":0,"o":"m 588 383 l 138 383 l 138 597 l 797 597 l 797 192 l 588 192 "},"~":{"ha":933,"x_min":0,"x_max":0,"o":"m 132 371 b 324 657 118 567 210 657 b 588 568 444 657 493 568 b 672 650 643 568 669 606 l 803 650 b 606 358 817 424 699 358 b 332 453 465 358 410 453 b 264 371 279 453 260 401 l 132 371 "},"^":{"ha":740,"x_min":0,"x_max":0,"o":"m 226 1013 l 515 1013 l 719 650 l 467 650 l 372 806 l 274 650 l 21 650 "},"∞":{"ha":1294,"x_min":0,"x_max":0,"o":"m 371 164 b 43 503 190 164 43 297 b 372 849 43 703 188 849 b 646 688 493 849 590 776 b 921 849 701 776 799 849 b 1251 503 1106 849 1251 703 b 922 164 1251 296 1103 164 b 646 317 800 164 704 225 b 371 164 589 224 490 164 m 389 419 b 522 508 450 419 497 471 b 389 594 499 546 450 594 b 303 508 335 594 303 554 b 389 419 303 463 333 419 m 901 419 b 989 508 957 419 989 461 b 901 594 989 554 957 594 b 771 508 843 594 794 546 b 901 419 797 467 844 419 "},"∅":{"ha":1104,"x_min":0,"x_max":0,"o":"m 553 1 b 57 508 269 1 57 207 b 553 1011 57 806 269 1011 b 1050 508 836 1011 1050 804 b 553 1 1050 207 836 1 m 164 508 b 193 350 164 451 174 397 l 861 760 b 553 910 792 853 681 910 b 164 508 336 910 164 744 m 553 103 b 942 508 774 103 942 271 b 910 674 942 568 931 625 l 238 264 b 553 103 308 164 422 103 "},"∫":{"ha":669,"x_min":0,"x_max":0,"o":"m 11 10 l 196 10 l 196 783 b 425 1013 196 931 288 1013 l 658 1013 l 658 792 l 474 792 l 474 18 b 244 -210 474 -128 381 -210 l 11 -210 "},"∏":{"ha":1106,"x_min":0,"x_max":0,"o":"m 88 1013 l 1018 1013 l 1018 -210 l 724 -210 l 724 749 l 383 749 l 383 -210 l 88 -210 "},"∑":{"ha":893,"x_min":0,"x_max":0,"o":"m 88 97 l 367 382 l 367 421 l 88 706 l 88 1013 l 806 1013 l 806 724 l 603 724 l 457 726 l 457 711 l 760 401 l 457 92 l 457 76 l 603 79 l 806 79 l 806 -210 l 88 -210 "},"√":{"ha":1128,"x_min":0,"x_max":0,"o":"m 149 432 l 11 432 l 11 694 l 378 694 l 533 76 l 544 76 l 804 1013 l 1117 1013 l 738 -210 l 339 -210 "},"%":{"ha":1306,"x_min":0,"x_max":0,"o":"m 317 474 b 63 750 133 474 63 586 b 317 1026 63 914 133 1026 b 571 750 500 1026 571 914 b 317 474 571 586 500 474 m 861 1013 l 1035 1013 l 444 0 l 271 0 m 317 628 b 374 703 350 628 374 644 l 374 797 b 317 872 374 854 350 872 b 260 797 283 872 260 856 l 260 703 b 317 628 260 646 283 628 m 989 -15 b 735 261 806 -15 735 97 b 989 538 735 425 806 538 b 1243 261 1172 538 1243 425 b 989 -15 1243 97 1172 -15 m 989 139 b 1046 214 1022 139 1046 156 l 1046 308 b 989 385 1046 365 1022 385 b 932 308 956 385 932 367 l 932 214 b 989 139 932 157 956 139 "},"↑":{"ha":821,"x_min":0,"x_max":0,"o":"m 292 594 l 88 463 l 88 703 l 411 911 l 733 703 l 733 463 l 529 594 l 529 101 l 292 101 "},"→":{"ha":985,"x_min":0,"x_max":0,"o":"m 581 626 l 450 831 l 690 831 l 897 507 l 690 183 l 450 183 l 581 388 l 88 388 l 88 626 "},"↓":{"ha":821,"x_min":0,"x_max":0,"o":"m 529 911 l 529 418 l 733 550 l 733 310 l 411 101 l 88 310 l 88 550 l 292 418 l 292 911 "},"←":{"ha":985,"x_min":0,"x_max":0,"o":"m 897 388 l 404 388 l 535 183 l 294 183 l 88 507 l 294 831 l 535 831 l 404 626 l 897 626 "},"↔":{"ha":1154,"x_min":0,"x_max":0,"o":"m 24 507 l 231 831 l 471 831 l 340 626 l 814 626 l 683 831 l 924 831 l 1132 507 l 924 183 l 683 183 l 814 388 l 340 388 l 471 183 l 231 183 "},"☹":{"ha":1164,"x_min":0,"x_max":0,"o":"m 583 -14 b 57 510 281 -14 57 199 b 583 1026 57 814 281 1026 b 1110 510 886 1026 1110 813 b 583 -14 1110 199 886 -14 m 583 92 b 1000 510 833 92 1000 260 b 583 921 1000 757 833 921 b 167 510 333 921 167 757 b 583 92 167 260 333 92 m 463 543 b 388 638 413 543 388 583 b 463 731 388 699 417 731 b 536 638 511 731 536 690 b 463 543 536 574 506 543 m 710 543 b 633 638 660 543 633 583 b 710 731 633 699 665 731 b 786 638 760 731 786 690 b 710 543 786 575 753 543 m 279 268 b 583 447 319 383 443 447 b 888 268 724 447 847 383 l 797 268 b 583 367 756 331 672 367 b 369 268 489 367 408 326 l 279 268 "},"☺":{"ha":1164,"x_min":0,"x_max":0,"o":"m 583 -14 b 57 510 281 -14 57 199 b 583 1026 57 814 281 1026 b 1110 510 886 1026 1110 813 b 583 -14 1110 199 886 -14 m 583 92 b 1000 510 833 92 1000 260 b 583 921 1000 757 833 921 b 167 510 333 921 167 757 b 583 92 167 260 333 92 m 463 543 b 388 638 413 543 388 583 b 463 731 388 699 417 731 b 536 638 511 731 536 690 b 463 543 536 574 506 543 m 710 543 b 633 638 660 543 633 583 b 710 731 633 699 665 731 b 786 638 760 731 786 690 b 710 543 786 575 753 543 m 583 174 b 267 411 422 174 293 271 l 233 411 l 233 461 l 410 461 l 410 411 l 365 411 b 583 269 392 324 474 269 b 801 411 693 269 775 324 l 757 411 l 757 461 l 933 461 l 933 411 l 900 411 b 583 174 874 271 744 174 "},"✓":{"ha":1314,"x_min":0,"x_max":0,"o":"m 140 492 l 310 647 l 504 424 l 1019 919 l 1174 738 l 485 88 "},"@":{"ha":1222,"x_min":0,"x_max":0,"o":"m 629 -140 b 43 443 253 -140 43 93 b 624 1025 43 785 282 1025 b 1179 508 946 1025 1179 818 b 906 142 1179 278 1056 142 b 728 231 824 142 758 179 l 715 231 b 565 151 694 190 646 151 b 347 414 425 151 347 258 b 592 713 347 611 446 713 b 718 649 649 713 699 682 l 731 649 l 750 700 l 864 700 l 843 447 b 904 310 835 344 863 310 b 999 496 967 310 999 379 b 629 856 999 744 832 856 b 235 453 361 856 235 671 b 646 29 235 161 400 29 b 917 114 763 29 853 64 l 986 -24 b 629 -140 922 -86 783 -140 m 599 310 b 686 433 657 310 681 357 b 608 553 681 519 654 553 b 524 422 547 553 524 500 b 599 310 524 351 554 310 "},"&":{"ha":1050,"x_min":0,"x_max":0,"o":"m 376 -14 b 51 267 183 -14 51 92 b 246 532 51 379 129 483 b 140 757 179 596 140 675 b 467 1026 140 918 278 1026 b 765 765 644 1026 765 917 b 594 522 765 654 699 565 l 594 513 l 700 401 b 740 550 722 440 738 493 l 1021 550 l 1021 344 l 921 344 b 857 231 907 301 883 260 l 1071 0 l 738 0 l 664 79 b 376 -14 599 18 486 -14 m 468 650 b 528 742 507 671 528 707 b 468 804 528 779 504 804 b 406 742 432 804 406 776 b 458 650 406 710 431 672 m 425 213 b 514 243 457 213 492 221 l 383 386 b 328 301 353 372 328 344 b 425 213 328 249 368 213 "},"¶":{"ha":1136,"x_min":0,"x_max":0,"o":"m 326 463 b 11 731 128 456 11 563 b 326 1013 11 911 126 1013 l 1049 1013 l 1049 781 l 949 781 l 949 -210 l 689 -210 l 689 781 l 585 781 l 585 -210 l 326 -210 "},"©":{"ha":1214,"x_min":0,"x_max":0,"o":"m 608 -42 b 57 496 282 -42 57 174 l 57 517 b 608 1054 57 839 282 1054 b 1160 517 935 1054 1160 839 l 1160 496 b 608 -42 1160 174 935 -42 m 608 78 b 1032 496 860 78 1032 246 l 1032 517 b 608 935 1032 767 860 935 b 185 517 356 935 185 767 l 185 496 b 608 78 185 246 356 78 m 619 181 b 279 503 413 181 279 307 l 279 511 b 619 833 279 707 413 833 b 936 576 806 833 933 722 l 710 576 b 619 646 701 624 665 646 b 521 544 564 646 521 614 l 521 469 b 619 369 521 400 564 369 b 710 438 665 369 701 390 l 936 438 b 619 181 933 292 806 181 "},"®":{"ha":865,"x_min":0,"x_max":0,"o":"m 432 285 b 58 656 222 285 58 436 b 432 1025 58 878 222 1025 b 807 656 640 1025 807 878 b 432 285 807 436 640 285 m 431 361 b 729 657 596 361 729 481 b 432 956 729 835 596 956 b 133 656 268 956 133 835 b 431 361 133 478 268 361 m 282 833 l 451 833 b 601 728 517 833 601 826 b 542 649 601 690 578 658 l 542 647 b 594 579 579 643 594 618 l 594 550 b 600 507 594 535 594 519 l 475 507 b 469 547 471 515 469 529 l 469 564 b 431 603 469 589 460 603 l 404 603 l 404 507 l 282 507 m 404 742 l 404 679 l 433 679 b 472 711 461 679 472 693 b 433 742 472 733 457 742 "},"℗":{"ha":1214,"x_min":0,"x_max":0,"o":"m 608 -42 b 57 496 282 -42 57 174 l 57 517 b 608 1054 57 839 282 1054 b 1160 517 935 1054 1160 839 l 1160 496 b 608 -42 1160 174 935 -42 m 608 78 b 1032 496 860 78 1032 246 l 1032 517 b 608 935 1032 767 860 935 b 185 517 356 935 185 767 l 185 496 b 608 78 185 246 356 78 m 378 783 l 665 783 b 899 594 822 783 899 715 b 665 406 899 483 831 406 l 578 406 l 578 232 l 378 232 m 579 650 l 579 528 l 615 528 b 697 590 658 528 697 531 b 615 650 697 644 658 650 "},"™":{"ha":1115,"x_min":0,"x_max":0,"o":"m 467 1013 l 700 1013 l 767 789 l 772 789 l 836 1013 l 1067 1013 l 1067 576 l 907 576 l 906 699 l 907 813 l 903 813 l 832 576 l 703 576 l 632 813 l 628 813 l 629 699 l 629 576 l 468 576 m 118 865 l 7 865 l 7 1013 l 407 1013 l 407 865 l 292 865 l 292 576 l 118 576 "},"°":{"ha":624,"x_min":0,"x_max":0,"o":"m 313 532 b 43 779 156 532 43 631 b 313 1026 43 928 156 1026 b 582 779 468 1026 582 928 b 313 532 582 631 468 532 m 313 706 b 389 779 354 706 389 732 b 313 853 389 828 354 853 b 236 779 271 853 236 828 b 313 706 236 732 271 706 "},"|":{"ha":424,"x_min":0,"x_max":0,"o":"m 88 1013 l 336 1013 l 336 -93 l 88 -93 "},"¦":{"ha":424,"x_min":0,"x_max":0,"o":"m 88 1013 l 336 1013 l 336 525 l 88 525 m 88 394 l 336 394 l 336 -93 l 88 -93 "},"̈":{"ha":0,"x_min":0,"x_max":0,"o":"m 56 1196 l 333 1196 l 333 1017 l 56 1017 m 401 1196 l 679 1196 l 679 1017 l 401 1017 "},"̇":{"ha":0,"x_min":0,"x_max":0,"o":"m 56 1196 l 333 1196 l 333 1017 l 56 1017 "},"̀":{"ha":0,"x_min":0,"x_max":0,"o":"m 56 1196 l 328 1196 l 401 1017 l 192 1017 "},"́":{"ha":0,"x_min":0,"x_max":0,"o":"m 128 1196 l 400 1196 l 264 1017 l 56 1017 "},"̋":{"ha":0,"x_min":0,"x_max":0,"o":"m 132 1196 l 390 1196 l 256 1017 l 56 1017 m 486 1196 l 761 1196 l 574 1017 l 353 1017 "},"̂":{"ha":0,"x_min":0,"x_max":0,"o":"m 215 1196 l 483 1196 l 643 1017 l 414 1017 l 349 1093 l 283 1017 l 56 1017 "},"̌":{"ha":0,"x_min":0,"x_max":0,"o":"m 56 1196 l 285 1196 l 350 1119 l 415 1196 l 644 1196 l 485 1017 l 217 1017 "},"̆":{"ha":0,"x_min":0,"x_max":0,"o":"m 308 1003 b 56 1231 158 1003 56 1094 l 229 1231 b 308 1153 229 1178 263 1153 b 388 1231 353 1153 388 1178 l 560 1231 b 308 1003 560 1094 458 1003 "},"̊":{"ha":0,"x_min":0,"x_max":0,"o":"m 238 1003 b 56 1172 128 1003 56 1072 b 238 1342 56 1272 128 1342 b 419 1172 349 1342 419 1272 b 238 1003 419 1072 349 1003 m 238 1121 b 288 1172 267 1121 288 1142 b 238 1224 288 1203 267 1224 b 189 1172 208 1224 189 1203 b 238 1121 189 1142 208 1121 "},"̃":{"ha":0,"x_min":0,"x_max":0,"o":"m 424 1010 b 253 1067 349 1011 319 1065 b 163 1013 211 1067 186 1038 l 56 1085 b 251 1253 104 1218 190 1254 b 425 1199 335 1250 356 1200 b 510 1256 483 1199 501 1240 l 621 1188 b 424 1010 578 1060 497 1008 "},"̄":{"ha":0,"x_min":0,"x_max":0,"o":"m 56 1196 l 568 1196 l 568 1017 l 56 1017 "},"̒":{"ha":0,"x_min":0,"x_max":0,"o":"m 72 1231 b 253 1400 72 1339 138 1400 l 301 1400 l 301 1289 l 272 1289 b 194 1222 215 1289 194 1264 l 194 1207 l 282 1207 l 282 1019 l 72 1019 "},"̦":{"ha":0,"x_min":0,"x_max":0,"o":"m 13 -347 l 50 -349 b 142 -272 115 -349 142 -321 l 142 -256 l 17 -256 l 17 -75 l 265 -75 l 265 -294 b 78 -482 265 -429 190 -482 l 13 -482 "},"̧":{"ha":0,"x_min":0,"x_max":0,"o":"m 292 -368 b 56 -178 160 -368 53 -297 l 225 -178 b 279 -232 225 -203 239 -232 b 335 -179 317 -232 335 -210 b 264 -128 335 -142 308 -128 l 235 -128 l 235 43 l 382 43 l 382 -47 b 521 -192 471 -56 521 -112 b 292 -368 521 -301 422 -368 "},"̨":{"ha":0,"x_min":0,"x_max":0,"o":"m 228 -292 b 46 -157 111 -292 46 -243 b 139 18 46 -89 90 -36 l 254 24 l 236 -44 b 303 -119 222 -97 236 -119 l 394 -119 l 360 -292 l 228 -292 "},"̵":{"ha":0,"x_min":0,"x_max":0,"o":"m 63 456 l 529 456 l 529 290 l 63 290 "},"̶":{"ha":0,"x_min":0,"x_max":0,"o":"m 113 499 l 1232 499 l 1232 290 l 113 290 "},"̷":{"ha":0,"x_min":0,"x_max":0,"o":"m 682 811 l 825 811 l 221 -28 l 79 -28 "},"̸":{"ha":0,"x_min":0,"x_max":0,"o":"m 881 1053 l 1086 1053 l 308 -28 l 104 -28 "},"¨":{"ha":657,"x_min":0,"x_max":0,"o":"m 56 1196 l 333 1196 l 333 1017 l 56 1017 m 401 1196 l 679 1196 l 679 1017 l 401 1017 "},"˙":{"ha":389,"x_min":0,"x_max":0,"o":"m 56 1196 l 333 1196 l 333 1017 l 56 1017 "},"`":{"ha":457,"x_min":0,"x_max":0,"o":"m 56 1196 l 328 1196 l 401 1017 l 192 1017 "},"´":{"ha":456,"x_min":0,"x_max":0,"o":"m 128 1196 l 400 1196 l 264 1017 l 56 1017 "},"˝":{"ha":817,"x_min":0,"x_max":0,"o":"m 132 1196 l 390 1196 l 256 1017 l 56 1017 m 486 1196 l 761 1196 l 574 1017 l 353 1017 "},"ˆ":{"ha":699,"x_min":0,"x_max":0,"o":"m 215 1196 l 483 1196 l 643 1017 l 414 1017 l 349 1093 l 283 1017 l 56 1017 "},"ˇ":{"ha":700,"x_min":0,"x_max":0,"o":"m 56 1196 l 285 1196 l 350 1119 l 415 1196 l 644 1196 l 485 1017 l 217 1017 "},"˘":{"ha":615,"x_min":0,"x_max":0,"o":"m 308 1003 b 56 1231 158 1003 56 1094 l 229 1231 b 308 1153 229 1178 263 1153 b 388 1231 353 1153 388 1178 l 560 1231 b 308 1003 560 1094 458 1003 "},"˚":{"ha":475,"x_min":0,"x_max":0,"o":"m 238 1003 b 56 1172 128 1003 56 1072 b 238 1342 56 1272 128 1342 b 419 1172 349 1342 419 1272 b 238 1003 419 1072 349 1003 m 238 1121 b 288 1172 267 1121 288 1142 b 238 1224 288 1203 267 1224 b 189 1172 208 1224 189 1203 b 238 1121 189 1142 208 1121 "},"˜":{"ha":676,"x_min":0,"x_max":0,"o":"m 424 1010 b 253 1067 349 1011 319 1065 b 163 1013 211 1067 186 1038 l 56 1085 b 251 1253 104 1218 190 1254 b 425 1199 335 1250 356 1200 b 510 1256 483 1199 501 1240 l 621 1188 b 424 1010 578 1060 497 1008 "},"¯":{"ha":624,"x_min":0,"x_max":0,"o":"m 56 1196 l 568 1196 l 568 1017 l 56 1017 "},"¸":{"ha":576,"x_min":0,"x_max":0,"o":"m 292 -368 b 56 -178 160 -368 53 -297 l 225 -178 b 279 -232 225 -203 239 -232 b 335 -179 317 -232 335 -210 b 264 -128 335 -142 308 -128 l 235 -128 l 235 43 l 382 43 l 382 -47 b 521 -192 471 -56 521 -112 b 292 -368 521 -301 422 -368 "},"˛":{"ha":458,"x_min":0,"x_max":0,"o":"m 236 -292 b 56 -157 121 -292 56 -243 b 147 18 56 -89 99 -36 l 263 24 l 244 -44 b 313 -119 231 -97 244 -119 l 403 -119 l 368 -292 l 236 -292 "}}}
